<svg version="1.1" id="Layer_1" xmlns="http://www.w3.org/2000/svg" xmlns:xlink="http://www.w3.org/1999/xlink" x="0px" y="0px"
	 width="100%" viewBox="0 0 200 200" enable-background="new 0 0 200 200" xml:space="preserve">
<path fill="#FDFDFD" opacity="1.000000" stroke="none" 
	d="
M1.000001,115.000000 
	C1.000000,77.073372 1.000000,39.146740 1.000000,1.000000 
	C38.353939,1.000000 75.708313,1.000000 113.511642,1.341746 
	C102.234390,13.575836 90.508171,25.468178 77.675400,38.482750 
	C94.019920,35.951157 107.772690,39.538719 121.006615,46.297962 
	C122.276138,44.397068 123.195602,42.828117 124.309097,41.411705 
	C125.260643,40.201298 126.434853,39.165955 127.510559,38.053177 
	C128.300568,39.558380 129.559967,40.991852 129.802780,42.580677 
	C131.159637,51.459473 132.162537,60.392410 133.524048,69.270409 
	C134.003906,72.399490 134.585587,75.155266 131.794189,74.394058 
	C144.858200,88.334908 157.922211,102.275764 170.461197,115.656349 
	C179.305389,107.121567 187.554123,99.119408 195.862915,91.180130 
	C197.453979,89.659813 199.281555,88.387009 201.000000,87.000000 
	C201.000000,124.926636 201.000000,162.853271 201.000000,201.000000 
	C163.646057,201.000000 126.291687,201.000000 88.492622,200.658905 
	C95.985260,192.773941 103.922585,185.230072 111.859909,177.686203 
	C111.663307,177.058319 111.466698,176.430420 111.270096,175.802536 
	C109.216293,174.949326 106.981155,173.075073 105.137047,173.402573 
	C88.698891,176.321991 73.458427,173.004990 59.006393,165.211319 
	C56.109200,163.648911 54.159061,163.633957 53.338684,165.907562 
	C63.651730,176.678299 73.540779,186.977325 83.379326,197.324387 
	C84.405945,198.404068 85.133621,199.767975 86.000000,201.000000 
	C57.740196,201.000000 29.480394,201.000000 1.000000,201.000000 
	C1.000000,173.312836 1.000000,145.625076 1.346103,117.446457 
	C15.754889,130.733292 29.817574,144.510986 44.537060,158.932159 
	C43.866093,148.181061 43.271065,138.646835 42.676041,129.112595 
	C43.160442,128.845825 43.644848,128.579041 44.129250,128.312271 
	C45.323441,129.325089 46.869202,130.125671 47.636242,131.396332 
	C49.086678,133.799103 49.969696,136.536118 51.298916,139.021729 
	C57.854725,151.280823 65.839836,162.208908 79.353149,167.603287 
	C87.019035,170.663467 94.909904,171.229935 101.931076,169.667587 
	C85.834167,153.040024 69.631920,136.303665 53.648666,119.349365 
	C54.010853,118.983414 54.154057,118.835388 54.646366,118.757858 
	C78.069756,130.105804 101.144035,141.383240 124.456352,152.777023 
	C128.103195,142.256470 126.605690,133.346573 119.253311,125.552528 
	C112.085632,117.954308 102.386459,115.305397 93.011765,111.977280 
	C82.865959,108.375397 72.522552,105.199341 62.700470,100.853989 
	C53.321854,96.704834 47.242191,89.014290 44.419125,78.999641 
	C43.958473,77.365509 43.667931,75.683434 43.470543,74.795891 
	C30.556234,87.289749 17.663134,99.784546 4.729529,112.237267 
	C3.624270,113.301422 2.249549,114.085709 1.000001,115.000000 
M141.666367,145.947144 
	C145.236343,142.714218 148.806335,139.481308 152.278824,136.336700 
	C138.468979,110.088455 125.153847,84.780518 111.838722,59.472572 
	C112.167755,59.204842 112.496788,58.937115 112.825821,58.669384 
	C117.344887,63.814629 121.863953,68.959877 126.383018,74.105118 
	C127.205414,73.351830 128.027817,72.598541 128.850220,71.845261 
	C124.302910,61.823753 117.456795,53.579544 107.771698,47.713318 
	C96.960335,41.164921 85.617752,39.856434 73.611603,44.467239 
	C73.850304,45.441048 73.876320,45.962132 74.095703,46.382229 
	C81.858490,61.246639 89.586533,76.129906 97.505241,90.911003 
	C98.241150,92.284668 100.066788,93.336601 101.618439,93.965889 
	C108.373451,96.705467 115.477562,98.707703 121.964691,101.956528 
	C132.734055,107.349953 140.492706,115.854790 142.185226,128.110352 
	C142.991272,133.946976 141.514526,140.098846 140.582657,145.762314 
	C140.585175,146.069641 140.587708,146.376953 140.590225,146.684280 
	C140.720795,146.449905 140.851349,146.215515 141.666367,145.947144 
z"/>
<path fill="#040404" opacity="1.000000" stroke="none" 
	d="
M53.429684,119.567291 
	C69.631920,136.303665 85.834167,153.040024 101.931076,169.667587 
	C94.909904,171.229935 87.019035,170.663467 79.353149,167.603287 
	C65.839836,162.208908 57.854725,151.280823 51.298916,139.021729 
	C49.969696,136.536118 49.086678,133.799103 47.636242,131.396332 
	C46.869202,130.125671 45.323441,129.325089 44.129250,128.312271 
	C43.644848,128.579041 43.160442,128.845825 42.676041,129.112595 
	C43.271065,138.646835 43.866093,148.181061 44.537060,158.932159 
	C29.817574,144.510986 15.754889,130.733292 1.346103,116.977798 
	C1.000000,116.555557 1.000000,116.111107 1.000001,115.333328 
	C2.249549,114.085709 3.624270,113.301422 4.729529,112.237267 
	C17.663134,99.784546 30.556234,87.289749 43.470543,74.795891 
	C43.667931,75.683434 43.958473,77.365509 44.419125,78.999641 
	C47.242191,89.014290 53.321854,96.704834 62.700470,100.853989 
	C72.522552,105.199341 82.865959,108.375397 93.011765,111.977280 
	C102.386459,115.305397 112.085632,117.954308 119.253311,125.552528 
	C126.605690,133.346573 128.103195,142.256470 124.456352,152.777023 
	C101.144035,141.383240 78.069756,130.105804 54.462898,118.513695 
	C53.359577,118.199028 52.788834,118.199028 51.696636,118.199028 
	C52.536575,118.862167 52.983131,119.214729 53.429684,119.567291 
z"/>
<path fill="#040404" opacity="1.000000" stroke="none" 
	d="
M201.000000,86.666672 
	C199.281555,88.387009 197.453979,89.659813 195.862915,91.180130 
	C187.554123,99.119408 179.305389,107.121567 170.461197,115.656349 
	C157.922211,102.275764 144.858200,88.334908 131.794189,74.394058 
	C134.585587,75.155266 134.003906,72.399490 133.524048,69.270409 
	C132.162537,60.392410 131.159637,51.459473 129.802780,42.580677 
	C129.559967,40.991852 128.300568,39.558380 127.510559,38.053177 
	C126.434853,39.165955 125.260643,40.201298 124.309097,41.411705 
	C123.195602,42.828117 122.276138,44.397068 121.006615,46.297962 
	C107.772690,39.538719 94.019920,35.951157 77.675400,38.482750 
	C90.508171,25.468178 102.234390,13.575836 113.980301,1.341746 
	C114.000000,1.000000 114.500000,1.000000 114.911842,1.291174 
	C140.836090,26.663971 166.335495,51.758839 191.878708,76.809036 
	C194.793442,79.667526 197.953629,82.275734 201.000000,85.000000 
	C201.000000,85.444443 201.000000,85.888893 201.000000,86.666672 
z"/>
<path fill="#FEFEFE" opacity="1.000000" stroke="none" 
	d="
M201.000000,84.531342 
	C197.953629,82.275734 194.793442,79.667526 191.878708,76.809036 
	C166.335495,51.758839 140.836090,26.663971 115.161842,1.291174 
	C143.592697,1.000000 172.185410,1.000000 201.000000,1.000000 
	C201.000000,28.687166 201.000000,56.374924 201.000000,84.531342 
z"/>
<path fill="#090909" opacity="1.000000" stroke="none" 
	d="
M86.333328,201.000000 
	C85.133621,199.767975 84.405945,198.404068 83.379326,197.324387 
	C73.540779,186.977325 63.651730,176.678299 53.338684,165.907562 
	C54.159061,163.633957 56.109200,163.648911 59.006393,165.211319 
	C73.458427,173.004990 88.698891,176.321991 105.137047,173.402573 
	C106.981155,173.075073 109.216293,174.949326 111.270096,175.802536 
	C111.466698,176.430420 111.663307,177.058319 111.859909,177.686203 
	C103.922585,185.230072 95.985260,192.773941 88.023964,200.658905 
	C87.555557,201.000000 87.111107,201.000000 86.333328,201.000000 
z"/>
<path fill="#050505" opacity="1.000000" stroke="none" 
	d="
M141.071869,146.107925 
	C141.514526,140.098846 142.991272,133.946976 142.185226,128.110352 
	C140.492706,115.854790 132.734055,107.349953 121.964691,101.956528 
	C115.477562,98.707703 108.373451,96.705467 101.618439,93.965889 
	C100.066788,93.336601 98.241150,92.284668 97.505241,90.911003 
	C89.586533,76.129906 81.858490,61.246639 74.095703,46.382229 
	C73.876320,45.962132 73.850304,45.441048 73.611603,44.467239 
	C85.617752,39.856434 96.960335,41.164921 107.771698,47.713318 
	C117.456795,53.579544 124.302910,61.823753 128.850220,71.845261 
	C128.027817,72.598541 127.205414,73.351830 126.383018,74.105118 
	C121.863953,68.959877 117.344887,63.814629 112.825821,58.669384 
	C112.496788,58.937115 112.167755,59.204842 111.838722,59.472572 
	C125.153847,84.780518 138.468979,110.088455 152.278824,136.336700 
	C148.806335,139.481308 145.236343,142.714218 141.348557,145.994461 
	C141.030746,146.041779 141.071869,146.107925 141.071869,146.107925 
z"/>
<path fill="#050505" opacity="1.000000" stroke="none" 
	d="
M141.006317,146.011444 
	C140.851349,146.215515 140.720795,146.449905 140.590225,146.684280 
	C140.587708,146.376953 140.585175,146.069641 140.827271,145.935120 
	C141.071869,146.107925 141.030746,146.041779 141.006317,146.011444 
z"/>
<path fill="#FDFDFD" opacity="1.000000" stroke="none" 
	d="
M53.648670,119.349365 
	C52.983131,119.214729 52.536575,118.862167 51.696636,118.199028 
	C52.788834,118.199028 53.359577,118.199028 54.113785,118.443192 
	C54.154057,118.835388 54.010853,118.983414 53.648670,119.349365 
z"/>
</svg>