<svg version="1.1" id="Layer_1" xmlns="http://www.w3.org/2000/svg" xmlns:xlink="http://www.w3.org/1999/xlink" x="0px" y="0px"
	 width="100%" viewBox="0 0 1008 1024" enable-background="new 0 0 1008 1024" xml:space="preserve">
<path fill="#000000" opacity="1.000000" stroke="none" 
	d="
M1009.000000,211.000000 
	C1009.000000,367.358246 1009.000000,523.716492 1008.649170,680.417725 
	C1004.872620,679.009827 1001.887939,681.975525 998.581848,681.661438 
	C993.398315,681.169067 989.603638,683.647827 985.558289,686.721497 
	C978.377686,692.177612 972.963257,699.349915 965.879822,704.987549 
	C951.394592,716.515991 936.588257,727.589294 920.517517,736.600037 
	C909.872192,742.568848 902.708008,751.046387 898.851990,761.690308 
	C892.775635,778.463074 882.047546,791.160645 867.937927,801.086121 
	C854.260071,810.707764 838.954956,817.353943 822.852722,821.975281 
	C819.060181,823.063660 815.815735,824.732605 813.014954,827.562744 
	C810.683533,829.918518 807.875305,831.793762 805.414429,834.031616 
	C794.733948,843.744507 782.916748,852.167297 774.364990,864.233643 
	C768.358276,872.708984 762.108704,881.367432 752.018982,885.905151 
	C750.447266,886.612122 749.179810,888.216248 748.038940,889.622314 
	C743.330383,895.425659 738.258850,900.901978 734.865234,907.758301 
	C732.906799,911.715088 729.760559,915.164795 726.149597,917.951111 
	C721.785828,921.318176 719.128052,925.750610 717.075378,930.833618 
	C712.653625,941.783325 708.479919,952.816345 703.199646,963.447632 
	C699.248779,971.402283 695.689087,979.845276 696.023438,989.206787 
	C696.186768,993.780151 694.532043,997.692017 690.923767,1000.658813 
	C684.537781,1005.909851 682.316162,1013.560059 679.363525,1020.780701 
	C678.761169,1022.253723 678.909729,1023.726135 680.000000,1025.000000 
	C486.641754,1025.000000 293.283508,1025.000000 99.511124,1024.726196 
	C98.911438,1022.140564 98.865555,1019.890137 99.456833,1017.561340 
	C100.651421,1012.856262 99.089363,1009.115967 94.954018,1006.400269 
	C89.703056,1002.951843 84.068565,1000.702515 77.746338,1000.379395 
	C75.378723,1000.258423 73.438293,999.346191 72.706772,997.011902 
	C71.910652,994.471497 72.913200,992.031250 75.148140,991.027954 
	C82.348061,987.795776 85.062912,981.385376 86.890396,974.605713 
	C88.813957,967.469604 93.133705,964.065857 100.313423,963.403137 
	C107.225533,962.765137 113.620346,960.183289 119.423775,956.525452 
	C125.833153,952.485718 128.915512,946.655151 127.846565,938.744507 
	C126.003441,925.104553 116.687332,918.551453 105.027962,914.325500 
	C93.067467,909.990479 81.025238,911.798035 69.121246,914.814331 
	C63.427307,916.257019 57.906940,916.219116 52.455051,914.106812 
	C42.048759,910.074829 33.224957,903.613098 25.335117,895.864136 
	C22.586275,893.164429 19.599333,891.387817 15.763841,891.082031 
	C12.452764,890.818115 9.050468,890.939453 5.857132,890.180725 
	C2.928288,889.484924 1.944900,890.910583 1.000000,893.000000 
	C1.000000,715.308411 1.000000,537.616882 1.260466,359.655457 
	C5.959093,361.322998 10.325603,358.328705 14.723229,359.166870 
	C21.850611,360.525360 27.372990,357.891327 32.044735,352.671722 
	C40.094280,343.678192 49.080906,335.880554 60.028450,330.479187 
	C66.101616,327.482849 70.926842,322.643433 75.023003,317.484589 
	C81.214264,309.687134 89.130196,304.827789 98.309410,301.991974 
	C114.373726,297.029144 130.337662,292.052734 145.723709,285.001221 
	C165.345581,276.008453 182.225601,263.817200 196.648605,247.846298 
	C207.480286,235.852142 213.649689,221.524506 217.190720,206.238205 
	C219.709961,195.362839 225.105713,188.239517 235.453949,184.582932 
	C244.522888,181.378418 249.173218,174.478027 251.158463,165.449402 
	C251.910049,162.031250 252.423843,158.523941 254.226639,155.465393 
	C259.062408,147.261169 262.780090,138.461227 266.232697,129.695007 
	C270.888977,117.872612 278.582336,109.508705 289.332642,103.226746 
	C298.946808,97.608681 306.558289,90.042465 308.906525,78.574989 
	C311.115784,67.786247 314.029449,57.221359 317.832550,46.881763 
	C321.224976,37.658588 327.229614,31.346411 336.887695,28.769472 
	C340.266998,27.867823 343.687958,26.958677 346.646454,25.031788 
	C349.188690,23.375996 351.964386,21.287720 350.881470,17.863201 
	C349.612640,13.850694 350.572205,10.359592 351.802490,6.695487 
	C352.457947,4.743453 353.716644,2.545503 351.000000,1.000000 
	C498.691559,1.000000 646.383118,1.000000 794.353394,1.255075 
	C794.351624,2.268905 793.758728,3.061771 793.837280,3.781312 
	C795.086487,15.220244 799.662720,24.488245 809.667297,31.171486 
	C824.214172,40.889042 837.031128,52.655350 848.790588,65.693306 
	C857.316589,75.146225 862.972717,86.502914 870.837463,96.418900 
	C878.049988,105.512611 884.407471,115.168510 892.854065,123.365372 
	C906.582581,136.688049 919.752930,150.498779 935.438843,161.726379 
	C946.208862,169.435303 956.062378,178.280151 965.365967,187.950073 
	C977.095764,200.141769 989.236755,213.275894 1009.000000,211.000000 
M646.175110,213.714035 
	C646.509094,214.470627 647.030212,215.198959 647.149353,215.987991 
	C649.582214,232.094635 652.086731,248.191818 654.336304,264.324463 
	C657.321106,285.730133 660.120178,307.161896 662.960449,328.587555 
	C665.210632,345.561462 667.470764,362.534668 669.582397,379.526062 
	C670.276489,385.110870 668.167114,387.956451 662.856323,389.545563 
	C657.051331,391.282593 652.928833,390.012177 649.089417,385.310608 
	C646.952942,382.694397 645.635681,379.627502 644.277222,376.583954 
	C629.487061,343.449707 609.007629,314.345367 582.613892,289.414948 
	C544.781738,253.680252 501.145355,230.891251 448.111816,229.046921 
	C424.938141,228.241013 402.187805,230.320007 380.463745,239.195923 
	C373.912628,241.872574 373.712830,242.380325 376.959015,248.592850 
	C416.153534,323.602936 455.375031,398.598999 494.494171,473.648407 
	C496.259796,477.035736 498.533539,478.916687 502.182129,479.998322 
	C520.384094,485.394287 538.502319,491.074463 556.323547,497.641388 
	C584.816101,508.140533 613.156982,519.051331 637.802429,537.356934 
	C667.041687,559.074707 689.803711,586.196899 703.090149,620.335815 
	C718.033630,658.732422 715.905518,697.244324 701.617065,735.447449 
	C700.891296,737.387939 699.464539,739.212585 699.984863,741.539795 
	C701.929321,742.103760 702.783569,740.636658 703.768677,739.642944 
	C720.194519,723.074341 736.542297,706.427734 753.051392,689.942688 
	C755.668945,687.328979 755.104797,685.281616 753.632324,682.485840 
	C727.932739,633.692383 702.314026,584.856384 676.668579,536.034485 
	C635.528442,457.715027 594.379578,379.400116 553.253235,301.073395 
	C552.465515,299.573029 551.134888,298.168854 551.565369,296.100037 
	C553.915588,296.431183 554.855713,298.177979 556.109497,299.414520 
	C586.960510,329.841400 617.778381,360.301849 648.609314,390.749115 
	C714.302673,455.624939 779.995239,520.501587 845.705322,585.360535 
	C850.835693,590.424377 850.919128,590.381714 855.871826,585.356506 
	C900.439697,540.135071 944.998474,494.904633 989.563354,449.680145 
	C995.354004,443.803833 995.356445,443.819214 989.599121,438.137085 
	C916.886536,366.374786 844.179260,294.607056 771.463867,222.847565 
	C708.475891,160.687531 645.493164,98.522148 582.469360,36.398449 
	C574.362549,28.407413 576.054199,28.895584 568.807251,36.246101 
	C513.112671,92.736206 457.495148,149.302231 401.872284,205.862991 
	C400.880890,206.871094 399.402618,207.646973 399.521027,209.510269 
	C400.513947,210.466949 401.675842,210.021500 402.798706,209.907455 
	C410.905853,209.084122 418.978882,208.034332 427.118195,207.395142 
	C452.873047,205.372574 478.329468,207.078949 503.603394,212.216812 
	C537.129456,219.032227 568.833313,231.033844 599.378906,246.196548 
	C603.668640,248.325974 606.149109,247.662186 609.195801,244.297180 
	C616.020813,236.759247 620.757080,228.137817 624.586731,218.780731 
	C629.142944,207.647995 636.643372,205.831970 646.175110,213.714035 
M365.610352,643.793518 
	C392.513153,657.045288 419.418854,670.291138 446.318115,683.550171 
	C502.957214,711.468323 559.591736,739.395874 616.231812,767.312134 
	C622.290527,770.298279 622.596069,770.300903 624.714050,764.036560 
	C635.536011,732.028076 635.239380,700.444275 619.630310,669.988037 
	C603.999390,639.489136 579.273132,618.175049 548.969177,603.095764 
	C514.380859,585.884460 477.587341,574.545227 440.760345,563.389404 
	C402.810242,551.893250 364.928467,540.161682 329.180389,522.730286 
	C273.674438,495.664551 237.762222,453.281158 227.743393,391.065735 
	C227.478699,389.421997 227.549393,387.507690 225.665070,386.854736 
	C223.511368,386.108368 222.337860,387.941010 221.095749,389.201324 
	C213.726547,396.678436 206.428497,404.225647 199.056259,411.699707 
	C141.477478,470.073425 83.883942,528.432678 26.306963,586.808167 
	C21.776260,591.401733 21.786057,591.761963 26.438053,596.364258 
	C40.061852,609.842407 53.723011,623.282898 67.359077,636.748657 
	C120.009346,688.741455 172.650482,740.743530 225.323822,792.712891 
	C227.236130,794.599548 228.874146,797.014038 231.640152,797.643921 
	C232.840973,796.343140 232.644257,795.126831 232.561157,793.996765 
	C231.548508,780.222473 230.480713,766.452148 229.466324,752.677979 
	C227.241928,722.473877 225.057465,692.266846 222.811523,662.064331 
	C222.441299,657.085693 224.836090,654.213135 229.351044,652.772278 
	C235.318771,650.867798 240.559814,652.454285 244.544525,657.351318 
	C246.676636,659.971558 247.951324,663.056702 249.270874,666.117981 
	C265.962952,704.843384 285.839874,741.723083 312.816345,774.387878 
	C338.270630,805.209595 368.415283,829.886353 406.180695,844.316162 
	C437.998932,856.473511 470.923401,859.056274 504.497375,855.272339 
	C509.592804,854.698059 515.046204,854.810852 520.495789,851.379028 
	C433.087280,765.091064 346.098877,679.217834 259.110443,593.344543 
	C259.491791,592.851440 259.873138,592.358276 260.254486,591.865173 
	C295.142090,609.075989 330.029694,626.286743 365.610352,643.793518 
M369.945892,935.550354 
	C392.214203,957.574280 414.552521,979.528320 436.678986,1001.693909 
	C440.188843,1005.209900 442.263458,1005.432373 445.850708,1001.721863 
	C464.376068,982.559631 483.172058,963.658997 501.875793,944.669312 
	C519.059814,927.222595 536.217773,909.750061 553.461243,892.362244 
	C556.253296,889.546936 557.342712,887.190857 553.792358,884.117554 
	C550.524292,881.288635 547.375427,878.260498 544.555481,874.991089 
	C541.244568,871.152405 537.782654,870.402100 532.716125,871.502441 
	C493.486694,880.021606 454.083893,879.894897 414.663879,872.800659 
	C372.959229,865.295288 334.025787,850.140137 297.015167,829.766907 
	C287.036896,824.274170 287.042267,824.264526 279.184937,832.664429 
	C272.875641,839.409302 272.868896,839.765625 279.434235,846.245605 
	C309.432343,875.853638 339.438354,905.453674 369.945892,935.550354 
z"/>
</svg>