<svg version="1.1" id="Layer_1" xmlns="http://www.w3.org/2000/svg" xmlns:xlink="http://www.w3.org/1999/xlink" x="0px" y="0px"
	 width="100%" viewBox="0 0 496 496" enable-background="new 0 0 496 496" xml:space="preserve">
<path fill="#000000" opacity="1.000000" stroke="none" 
	d="
M41.000000,1.000000 
	C192.965836,1.000000 344.931671,1.000000 496.948730,1.000000 
	C496.948730,166.261963 496.948730,331.523956 496.948730,496.892975 
	C331.775238,496.892975 166.550400,496.892975 1.000000,496.892975 
	C1.000000,345.642731 1.000000,194.285263 1.171860,42.815620 
	C2.306931,45.368351 1.419699,48.502396 2.911172,51.143757 
	C4.774210,50.253967 4.140329,47.827469 6.170389,47.780090 
	C13.301111,55.681053 16.976665,55.080269 21.093510,45.334431 
	C24.239817,37.886154 29.019363,32.044865 36.333355,28.164139 
	C44.479233,23.842026 45.289425,21.541988 43.036228,12.550777 
	C42.440609,10.174008 42.685528,7.846002 43.315327,5.645978 
	C44.029728,3.150423 43.156437,1.858589 41.000000,1.000000 
M249.103149,49.602303 
	C232.273132,66.675453 215.443115,83.748611 198.402466,101.035439 
	C201.498276,103.192520 203.530579,102.651848 205.445969,102.417152 
	C219.466187,100.699196 233.348724,101.582085 247.169922,104.309975 
	C262.961517,107.426758 277.969849,112.844292 292.397430,119.850929 
	C296.097107,121.647667 298.488800,121.242264 300.941986,118.009628 
	C303.391724,114.781494 305.224548,111.298813 306.809296,107.605217 
	C308.057739,104.695427 310.045013,102.362724 313.638580,102.912094 
	C316.919189,103.413620 318.125397,105.698914 318.559662,108.899200 
	C319.945038,119.108604 321.658875,129.273102 323.080048,139.478043 
	C325.190826,154.634995 327.171509,169.810135 329.178436,184.981384 
	C329.550201,187.791504 329.300232,190.321045 326.019562,191.458725 
	C322.692535,192.612488 320.057465,191.741516 318.231934,188.851181 
	C317.084015,187.033676 316.293640,184.988220 315.365997,183.034058 
	C303.447754,157.928055 285.884399,137.942108 261.447479,124.432083 
	C240.425354,112.809929 218.019348,110.137924 194.687195,115.502945 
	C184.617722,117.818336 184.089294,119.103432 188.761536,128.069336 
	C205.851761,160.864975 223.168243,193.544327 239.994308,226.474503 
	C243.152206,232.654785 247.234421,235.951477 253.793381,237.896423 
	C272.484680,243.438950 291.207062,249.292770 307.769592,259.901794 
	C339.043884,279.934326 360.083771,315.080841 346.195221,357.883820 
	C345.836182,358.990326 344.673187,360.260376 346.667572,361.842346 
	C353.540314,354.950684 360.341003,347.932709 367.383331,341.166229 
	C370.249725,338.412109 370.716797,335.993622 368.762085,332.437439 
	C363.225891,322.365753 358.012665,312.116669 352.659973,301.943939 
	C326.284302,251.817276 299.899323,201.695496 273.553680,151.553055 
	C272.799133,150.116989 271.207245,148.769257 272.099731,146.766571 
	C273.913361,146.857117 274.587524,148.150742 275.505768,149.046097 
	C289.939667,163.120422 304.429230,177.138748 318.760101,191.317444 
	C350.506836,222.727112 382.221191,254.170013 413.798187,285.749969 
	C417.184998,289.137115 419.133698,288.637634 422.181061,285.520966 
	C442.801086,264.431824 463.518860,243.437149 484.345703,222.552231 
	C487.696594,219.191986 487.724121,216.984894 484.256470,213.612061 
	C463.829681,193.743790 443.601257,173.671570 423.311371,153.662598 
	C378.697021,109.665855 334.091278,65.660431 289.467682,21.673092 
	C282.827545,15.127648 282.788025,15.160612 276.160889,21.935629 
	C267.305603,30.988537 258.456604,40.047562 249.103149,49.602303 
M215.132263,333.225952 
	C226.037933,338.603027 236.939713,343.988007 247.850128,349.355438 
	C265.638977,358.106659 283.469757,366.773987 301.196442,375.649323 
	C304.957336,377.532318 306.556335,376.516327 307.617126,372.763672 
	C309.163177,367.294403 310.504028,361.786163 310.589966,356.102997 
	C310.901062,335.535400 301.507660,319.672852 286.151825,306.905365 
	C273.349365,296.260864 257.957916,290.670135 242.550934,285.191132 
	C219.962646,277.158356 196.630051,271.402588 174.298157,262.542084 
	C152.174896,253.764374 133.154922,241.373383 121.310158,219.941940 
	C117.169975,212.450851 114.515038,204.426498 112.638840,196.088715 
	C111.726830,192.035767 109.841988,191.538055 106.723763,194.160980 
	C105.579399,195.123581 104.550735,196.227020 103.496910,197.293518 
	C74.801750,226.332916 46.110451,255.376129 17.417822,284.418030 
	C11.489031,290.419006 11.410295,290.496063 17.507725,296.527649 
	C48.308895,326.996002 79.150093,357.423920 109.999649,387.843262 
	C111.015923,388.845398 111.841431,390.226562 113.782364,390.389160 
	C113.886620,389.749237 114.107040,389.134399 114.066635,388.537201 
	C112.741013,368.940491 111.356094,349.347687 110.075638,329.748077 
	C109.850563,326.302826 108.160049,322.153320 113.289406,320.511536 
	C117.253563,319.242676 120.195137,321.129456 122.726448,326.522339 
	C123.221817,327.577698 123.682068,328.649536 124.157059,329.714417 
	C132.748550,348.975006 142.981735,367.237823 156.919327,383.216675 
	C178.223648,407.641174 204.618561,421.236877 237.514282,420.479034 
	C243.136108,420.349548 248.969559,420.287109 255.379364,417.704590 
	C212.608398,375.493805 170.545914,333.982208 128.483414,292.470642 
	C128.826828,292.007141 129.170242,291.543671 129.513657,291.080200 
	C157.831635,305.015228 186.149597,318.950287 215.132263,333.225952 
M214.723679,430.170135 
	C206.823410,428.987823 198.946793,427.731262 191.196594,425.703735 
	C175.139038,421.502838 159.941513,415.189697 145.520874,407.060883 
	C141.363266,404.717224 139.477524,407.139282 137.162918,409.636658 
	C134.546494,412.459747 136.781891,414.064117 138.563354,415.828613 
	C163.310196,440.339844 188.109955,464.798157 212.739777,489.426422 
	C216.046310,492.732788 218.165558,492.551422 221.286560,489.334381 
	C237.183884,472.948303 253.266205,456.741852 269.216614,440.406921 
	C270.827576,438.757111 273.926849,436.942413 271.637024,434.235077 
	C269.234741,431.394897 267.440338,426.934204 262.361725,427.963501 
	C246.895187,431.098083 231.322968,431.863983 214.723679,430.170135 
z"/>
</svg>