<svg version="1.1" id="Layer_1" xmlns="http://www.w3.org/2000/svg" xmlns:xlink="http://www.w3.org/1999/xlink" x="0px" y="0px"
	 width="100%" viewBox="0 0 400 400" enable-background="new 0 0 400 400" xml:space="preserve">
<path fill="#646c78" opacity="1.000000" stroke="none" 
	d="
M219.000000,401.000000 
	C146.022659,401.000000 73.545303,401.000000 1.033979,401.000000 
	C1.033979,267.730988 1.033979,134.461960 1.033979,1.096468 
	C134.227310,1.096468 267.454712,1.096468 400.841064,1.096468 
	C400.841064,134.333176 400.841064,267.666565 400.841064,401.000000 
	C340.462036,401.000000 279.981018,401.000000 219.000000,401.000000 
M110.029343,241.474136 
	C107.631279,239.277161 105.233208,237.080200 102.660576,234.723312 
	C105.191612,233.110260 106.390305,234.450562 107.626892,235.058472 
	C129.002670,245.566711 150.353226,256.126282 171.713394,266.666290 
	C193.968719,277.647980 216.213348,288.651550 238.496460,299.576630 
	C244.368820,302.455750 245.545242,301.837555 247.096451,295.499329 
	C249.810944,284.407776 248.880005,273.717468 243.532211,263.499268 
	C237.853821,252.649384 229.249832,244.771225 218.656021,238.942001 
	C207.651154,232.886551 195.779251,228.968414 183.877579,225.163010 
	C165.011536,219.130798 145.756790,214.148453 127.978767,205.133011 
	C108.676918,195.344818 95.663986,180.343430 90.609474,158.958954 
	C90.232758,157.365128 90.138893,155.374954 88.180428,154.954056 
	C86.088455,154.504440 84.915955,156.321869 83.661125,157.590775 
	C60.583183,180.927689 37.516323,204.275589 14.472995,227.646683 
	C9.537559,232.652328 9.580153,232.925430 14.651487,237.933762 
	C38.360531,261.348145 62.068039,284.764099 85.804543,308.150635 
	C87.045013,309.372803 87.969254,311.153625 90.090248,311.252686 
	C91.463326,309.821075 91.035347,308.063293 90.935997,306.487671 
	C90.108246,293.360077 89.103859,280.243042 88.360306,267.111084 
	C88.153816,263.464172 85.460770,258.471619 91.103081,256.847961 
	C96.714584,255.233124 97.851517,260.401123 99.527527,264.076599 
	C107.449280,281.448944 116.725662,297.916626 130.212769,311.717865 
	C147.357773,329.262207 167.992767,337.975769 192.630081,336.694977 
	C196.031784,336.518127 199.596161,336.712952 203.342361,333.703888 
	C172.254700,302.976196 141.393616,272.472443 110.029343,241.474136 
M256.366455,94.662903 
	C258.579254,110.651527 260.838226,126.633972 262.977570,142.632416 
	C263.644501,147.619904 265.477112,153.193069 258.271301,154.974823 
	C258.474945,157.088089 259.730133,158.013855 260.774506,159.047775 
	C284.105896,182.145142 307.491302,205.188293 330.734070,228.374405 
	C333.724792,231.357864 335.667725,231.116806 338.472290,228.246475 
	C354.543060,211.798828 370.675720,195.409698 386.966858,179.180893 
	C390.413055,175.747833 390.083099,173.584671 386.731567,170.292603 
	C335.014038,119.492363 283.411865,68.574707 231.772537,17.694818 
	C226.589035,12.587553 226.278427,12.588617 221.067642,17.886583 
	C201.903610,37.371262 182.759705,56.875748 163.631531,76.395622 
	C162.509079,77.541039 160.969910,78.510841 161.109024,80.546562 
	C162.683792,82.795387 165.004425,81.858170 167.038544,81.773689 
	C179.409195,81.259941 191.669235,81.772278 203.744232,84.881203 
	C213.950256,87.508926 223.744934,91.241112 233.297073,95.613869 
	C237.260910,97.428413 240.045898,96.436607 242.111755,92.858253 
	C243.524521,90.411163 244.736862,87.848618 246.141312,85.396393 
	C247.196732,83.553558 248.715561,82.315155 251.029984,82.632362 
	C253.550323,82.977791 254.758560,84.634270 255.173264,86.978004 
	C255.579514,89.273857 255.913422,91.582504 256.366455,94.662903 
M203.552307,96.980659 
	C188.023148,90.321732 172.005325,89.185959 155.639191,93.014816 
	C148.324783,94.726036 147.830643,95.858238 151.244614,102.460320 
	C164.474716,128.045303 178.020813,153.470352 190.933807,179.213501 
	C194.283905,185.892197 198.651505,189.559784 205.786362,191.566772 
	C220.216263,195.625854 234.616852,200.321335 247.129303,208.794464 
	C271.946869,225.600266 284.759338,248.260468 279.224030,279.092377 
	C278.679443,282.125610 277.925415,285.121277 277.268616,288.134369 
	C277.660614,288.394836 278.052582,288.655304 278.444580,288.915771 
	C282.487122,284.878845 286.596771,280.906494 290.557465,276.790802 
	C297.555969,269.518311 297.717560,271.513153 292.814423,262.158386 
	C268.313293,215.412277 243.706390,168.721603 219.180893,121.988228 
	C218.589691,120.861679 217.028732,119.730995 218.671906,117.733109 
	C229.583435,128.360077 240.410065,138.904373 251.236694,149.448669 
	C251.752441,148.928162 252.268173,148.407669 252.783905,147.887161 
	C242.669128,125.380905 226.698166,108.317574 203.552307,96.980659 
M125.258858,347.239960 
	C140.195938,361.962982 155.228485,376.591339 169.995468,391.483063 
	C173.233795,394.748688 175.122086,394.277496 178.023926,391.264618 
	C190.147064,378.677643 202.468948,366.282166 214.707138,353.805878 
	C218.880463,349.551361 218.304260,346.136780 213.040878,343.473999 
	C210.876740,342.379120 208.778854,343.297211 206.697235,343.643982 
	C192.281555,346.045380 177.888870,346.066345 163.499481,343.449280 
	C147.305130,340.503937 132.079178,334.842712 117.672943,326.962128 
	C114.793144,325.386780 112.469742,325.132050 110.211906,327.876587 
	C107.727974,330.896027 110.367340,332.406464 111.999435,334.076691 
	C116.186844,338.361969 120.496346,342.527924 125.258858,347.239960 
z"/>
</svg>