<?xml version="1.0" encoding="UTF-8" standalone="no"?>
<!-- Created with Inkscape (http://www.inkscape.org/) -->

<svg
   xmlns:osb="http://www.openswatchbook.org/uri/2009/osb"
   xmlns:dc="http://purl.org/dc/elements/1.1/"
   xmlns:cc="http://creativecommons.org/ns#"
   xmlns:rdf="http://www.w3.org/1999/02/22-rdf-syntax-ns#"
   xmlns:svg="http://www.w3.org/2000/svg"
   xmlns="http://www.w3.org/2000/svg"
   xmlns:sodipodi="http://sodipodi.sourceforge.net/DTD/sodipodi-0.dtd"
   xmlns:inkscape="http://www.inkscape.org/namespaces/inkscape"
   width="210mm"
   height="297mm"
   viewBox="0 0 210 297"
   version="1.1"
   id="svg8"
   inkscape:version="0.92.4 (5da689c313, 2019-01-14)"
   sodipodi:docname="msNeu.svg">
  <defs
     id="defs2">
    <linearGradient
       id="linearGradient4941"
       osb:paint="solid">
      <stop
         style="stop-color:#fffffa;stop-opacity:1;"
         offset="0"
         id="stop4939" />
    </linearGradient>
  </defs>
  <sodipodi:namedview
     id="base"
     pagecolor="#ffffff"
     bordercolor="#666666"
     borderopacity="1.0"
     inkscape:pageopacity="0.0"
     inkscape:pageshadow="2"
     inkscape:zoom="0.7"
     inkscape:cx="-1219.5261"
     inkscape:cy="-1606.3502"
     inkscape:document-units="mm"
     inkscape:current-layer="layer2"
     showgrid="true"
     showguides="true"
     inkscape:guide-bbox="true"
     inkscape:window-width="1920"
     inkscape:window-height="1102"
     inkscape:window-x="-10"
     inkscape:window-y="-10"
     inkscape:window-maximized="1"
     inkscape:snap-grids="true"
     inkscape:snap-to-guides="true"
     inkscape:snap-text-baseline="false">
    <sodipodi:guide
       position="74.083333,58.208333"
       orientation="1,0"
       id="guide3713"
       inkscape:locked="false" />
    <sodipodi:guide
       position="142.11904,225.27382"
       orientation="0,1"
       id="guide3715"
       inkscape:locked="false" />
    <inkscape:grid
       spacingx="2.6458333"
       spacingy="2.6458333"
       type="xygrid"
       id="grid3765"
       empspacing="2" />
    <sodipodi:guide
       position="121.70833,76.729166"
       orientation="1,0"
       id="guide3767"
       inkscape:locked="false" />
    <sodipodi:guide
       position="97.954282,46.371263"
       orientation="1,0"
       id="guide3769"
       inkscape:locked="false" />
  </sodipodi:namedview>
  <metadata
     id="metadata5">
    <rdf:RDF>
      <cc:Work
         rdf:about="">
        <dc:format>image/svg+xml</dc:format>
        <dc:type
           rdf:resource="http://purl.org/dc/dcmitype/StillImage" />
        <dc:title></dc:title>
      </cc:Work>
    </rdf:RDF>
  </metadata>
  <g
     inkscape:label="Ebene 1"
     inkscape:groupmode="layer"
     id="layer1"
     style="display:inline;opacity:0.33004928">
    <rect
       id="rect3721"
       width="2.6458333"
       height="2.6458333"
       x="-111.06858"
       y="-91.630562"
       style="stroke-width:0.26458332" />
    <rect
       id="rect3723"
       width="5.2916665"
       height="5.2916665"
       x="-90.915909"
       y="-101.06885"
       style="stroke-width:0.26458332" />
    <rect
       id="rect3725"
       width="7.9375"
       height="7.9375"
       x="-69.274948"
       y="-103.64983"
       style="stroke-width:0.26458332" />
    <rect
       id="rect3729"
       width="21.166666"
       height="21.166666"
       x="-10.583333"
       y="-115.74999"
       style="stroke-width:0.26458332" />
    <rect
       id="rect3731"
       width="34.395832"
       height="34.395832"
       x="30.994047"
       y="-110.28165"
       style="stroke-width:0.26458332" />
    <rect
       id="rect3735"
       width="89.958336"
       height="89.958336"
       x="132.29167"
       y="-110.45833"
       style="stroke-width:0.26458332" />
    <rect
       id="rect3737"
       width="145.52083"
       height="145.52083"
       x="278.68616"
       y="-112.81924"
       style="stroke-width:0.26458332" />
    <rect
       id="rect3731-5"
       width="34.395832"
       height="34.395832"
       x="26.45833"
       y="143.54167"
       style="opacity:0.33004928;stroke-width:0.26458332" />
    <rect
       id="rect3731-57"
       width="34.395832"
       height="34.395832"
       x="137.58333"
       y="143.54167"
       style="opacity:0.33004928;stroke-width:0.26458332" />
    <rect
       style="opacity:0.33004928;stroke-width:0.26458332"
       y="32.416672"
       x="26.458332"
       height="145.52083"
       width="145.52083"
       id="rect3805"
       sodipodi:insensitive="true" />
    <path
       sodipodi:type="star"
       id="path3807"
       sodipodi:sides="5"
       sodipodi:cx="5.2916665"
       sodipodi:cy="-62.833328"
       sodipodi:r1="35.596046"
       sodipodi:r2="17.798023"
       sodipodi:arg1="0.83798123"
       sodipodi:arg2="1.4662998"
       inkscape:flatsided="false"
       inkscape:rounded="0"
       inkscape:randomized="0"
       d="m 29.104166,-36.374995 -21.9560508,-8.757395 -19.6613522,13.122169 1.543985,-23.587629 -18.555616,-14.644083 22.9102853,-5.820562 8.1933504,-22.17271 12.6153513,19.990323 23.619385,0.940595 -15.11357,18.175262 z"
       inkscape:transform-center-x="1.1473489"
       inkscape:transform-center-y="-2.289384"
       style="stroke-width:0.26458332" />
    <rect
       id="rect3731-57-3"
       width="34.395832"
       height="34.395832"
       x="137.58334"
       y="32.416676"
       style="display:inline;opacity:0.33004928;stroke-width:0.26458332" />
    <rect
       id="rect3731-57-6"
       width="34.395832"
       height="34.395832"
       x="26.458332"
       y="32.416668"
       style="display:inline;opacity:0.33004928;stroke-width:0.26458332" />
    <rect
       id="rect3735-0"
       width="89.958336"
       height="89.958336"
       x="52.916664"
       y="191.16667"
       style="display:inline;opacity:0.33004928;stroke-width:0.26458332" />
    <rect
       id="rect3729-3"
       width="21.166666"
       height="21.166666"
       x="52.916664"
       y="259.95834"
       style="display:inline;opacity:0.33004928;stroke-width:0.26458332" />
    <rect
       id="rect3729-8"
       width="21.166666"
       height="21.166666"
       x="121.70833"
       y="259.95834"
       style="display:inline;opacity:0.33004928;stroke-width:0.26458332" />
    <rect
       id="rect3729-6"
       width="21.166666"
       height="21.166666"
       x="121.70833"
       y="191.16666"
       style="display:inline;opacity:0.33004928;stroke-width:0.26458332" />
    <rect
       id="rect3729-2"
       width="21.166666"
       height="21.166666"
       x="52.916664"
       y="191.16666"
       style="display:inline;opacity:0.33004928;stroke-width:0.26458332" />
    <path
       style="fill:none;stroke:#000000;stroke-width:0.26458332px;stroke-linecap:butt;stroke-linejoin:miter;stroke-opacity:1"
       d="m 52.916666,191.16667 h 21.166666 l 23.870949,21.16666 c 0,0 23.754049,-21.16666 23.754049,-21.16666 H 142.875 V 281.125 h -21.16667 v -68.79167 l -23.812498,47.625 -23.8125,-23.8125 V 281.125 H 52.916666 v -89.95833"
       id="path3878"
       inkscape:connector-curvature="0" />
    <path
       style="fill:none;stroke:#000000;stroke-width:0.26458332px;stroke-linecap:butt;stroke-linejoin:miter;stroke-opacity:1"
       d="M 87.312499,281.125 74.083332,236.14583 v -44.97916 l 23.870949,79.375 23.754049,-79.375 v 47.62499 L 108.47916,281.125 Z"
       id="path3880"
       inkscape:connector-curvature="0" />
    <rect
       id="rect3727"
       width="13.229167"
       height="13.229167"
       x="74.083336"
       y="191.16667"
       style="display:inline;opacity:0.33004928;stroke-width:0.26458332" />
    <rect
       id="rect3727-8"
       width="13.229167"
       height="13.229167"
       x="108.47916"
       y="191.16666"
       style="display:inline;opacity:0.33004928;stroke-width:0.26458332" />
    <path
       style="fill:none;stroke:#000000;stroke-width:0.26458332px;stroke-linecap:butt;stroke-linejoin:miter;stroke-opacity:1"
       d="M 97.954281,236.14583 87.312499,191.16667 h 21.166661 z"
       id="path3924"
       inkscape:connector-curvature="0" />
    <rect
       id="rect3729-3-1"
       width="13.229167"
       height="13.229167"
       x="-47.625"
       y="-97.229156"
       style="display:inline;opacity:0.33004928;stroke-width:0.16536458" />
    <rect
       id="rect3729-3-5"
       width="21.166666"
       height="21.166666"
       x="-82.020828"
       y="244.08333"
       style="display:inline;opacity:0.33004928;stroke-width:0.26458332" />
    <rect
       id="rect3731-1"
       width="34.395832"
       height="34.395832"
       x="-116.41666"
       y="230.85417"
       style="display:inline;opacity:0.33004928;stroke-width:0.26458332" />
  </g>
  <g
     inkscape:groupmode="layer"
     id="layer2"
     inkscape:label="Ebene 2">
    <path
       style="fill:none;stroke:#000000;stroke-width:0.26458332px;stroke-linecap:butt;stroke-linejoin:miter;stroke-opacity:1"
       d="m 52.916666,191.16667 h 34.395833 l 10.641782,44.97916 10.524879,-44.97916 H 142.875 V 281.125 H 121.70833 V 238.79166 L 108.47916,281.125 H 87.312499 L 74.083332,236.14583 V 281.125 H 52.916666 v -89.95833"
       id="path3926"
       inkscape:connector-curvature="0" />
    <path
       d="m 315.71877,927.24053 -35.20735,-35.21004 v -59.72392 -59.72393 l 6.9448,0.004 6.9448,0.004 28.47066,94.72226 c 15.65887,52.09724 28.37702,94.81591 28.26256,94.93037 -0.11447,0.11446 -16.05143,-15.6364 -35.41547,-35.00193 z"
       id="path3928"
       inkscape:connector-curvature="0"
       style="stroke-width:0.50507629"
       transform="scale(0.26458333)" />
    <path
       d="m 200.70937,762.73365 v -39.64849 h 39.39595 39.39595 v 39.64849 39.64849 h -39.39595 -39.39595 z"
       id="path3930"
       inkscape:connector-curvature="0"
       style="stroke-width:0.50507629"
       transform="scale(0.26458333)" />
    <path
       d="m 200.70937,892.53825 v -90.15611 h 39.39595 39.39595 v 90.15611 90.15612 h -39.39595 -39.39595 z"
       id="path3932"
       inkscape:connector-curvature="0"
       style="stroke-width:0.50507629"
       transform="scale(0.26458333)" />
    <path
       d="m 200.70937,1022.3429 v -39.64853 h 39.39595 39.39595 v 39.64853 39.6484 h -39.39595 -39.39595 z"
       id="path3934"
       inkscape:connector-curvature="0"
       style="stroke-width:0.50507629"
       transform="scale(0.26458333)" />
    <path
       d="m 294.46422,768.41576 c -9.57537,-31.65082 -12.92222,-42.994 -12.73945,-43.17677 0.12067,-0.12067 10.30019,8.72084 22.62117,19.64779 12.32097,10.92695 23.19236,20.54903 24.15863,21.38241 1.60874,1.38747 1.74388,1.7175 1.60292,3.91434 l -0.15394,2.39911 h -17.11436 -17.11435 z"
       id="path3936"
       inkscape:connector-curvature="0"
       style="stroke-width:0.50507629"
       transform="scale(0.26458333)" />
    <path
       d="m 280.55129,749.72794 c 0.0219,-12.57009 0.13014,-22.62742 0.24047,-22.34963 0.47603,1.19865 13.35672,44.3685 13.35672,44.7653 0,0.24147 -3.06834,0.43903 -6.81853,0.43903 h -6.81853 z"
       id="path3938"
       inkscape:connector-curvature="0"
       style="stroke-width:0.50507629"
       transform="scale(0.26458333)" />
    <path
       d="m 361.65258,973.17445 -7.99296,-8.00469 -28.91747,-96.16729 -28.91747,-96.16729 17.08415,-0.13289 17.08414,-0.13289 0.24084,-1.1298 c 0.13246,-0.62139 0.30731,-1.57243 0.38857,-2.11342 0.11978,-0.79744 1.15119,-0.0926 5.44924,3.72367 2.91582,2.58901 5.57397,4.96355 5.907,5.27677 0.4463,0.41974 27.42622,112.78185 27.42622,114.22079 0,0.67812 1.4829,0.12149 1.70631,-0.6405 0.14254,-0.48614 5.96398,-25.31695 12.93654,-55.17958 6.97257,-29.86264 12.89261,-55.0912 13.15564,-56.06347 0.3638,-1.3447 1.86591,-3.00676 6.27647,-6.9448 3.18902,-2.84737 5.91812,-5.17703 6.06468,-5.17703 0.14656,0 0.26647,0.90914 0.26647,2.0203 v 2.02031 h 17.17259 c 9.44493,0 17.17259,0.13727 17.17259,0.30504 0,0.16778 -9.99372,33.6794 -22.20827,74.47028 l -22.20828,74.16523 -14.91567,29.82797 c -8.20362,16.40539 -14.97478,29.82798 -15.04702,29.82798 -0.0722,0 -3.72818,-3.60211 -8.12431,-8.00469 z"
       id="path3940"
       inkscape:connector-curvature="0"
       style="stroke-width:0.50507629"
       transform="scale(0.26458333)" />
    <path
       d="m 329.74612,1059.0902 c -0.46272,-1.599 -11.39635,-38.7958 -24.29695,-82.6596 -12.90061,-43.8638 -23.39122,-79.94564 -23.31248,-80.18187 0.0788,-0.23623 15.9764,15.42403 35.32812,34.80057 l 35.18494,35.23009 8.40501,28.03173 c 4.62275,15.41748 8.53335,28.46648 8.69023,28.99788 0.22715,0.7694 0.36551,0.8209 0.67952,0.2525 0.21687,-0.3924 7.15502,-23.3284 15.41813,-50.96866 l 15.02383,-50.25509 29.19311,-58.33631 29.19311,-58.3363 0.0279,48.25822 0.0279,48.25822 -24.9295,79.77862 -24.9295,79.7786 -39.43099,0.1293 -39.431,0.1294 z"
       id="path3942"
       inkscape:connector-curvature="0"
       style="stroke-width:0.50507629"
       transform="scale(0.26458333)" />
    <path
       d="m 362.62365,994.91483 c -4.13045,-13.80495 -7.62039,-25.44083 -7.75544,-25.85752 -0.13504,-0.41669 3.14003,2.59483 7.27794,6.69226 4.1379,4.09743 7.69074,7.44988 7.89519,7.44988 0.20445,0 6.26912,-11.76197 13.47705,-26.1377 7.20792,-14.37574 13.11775,-25.94016 13.13294,-25.69872 0.0267,0.42419 -26.19146,88.32537 -26.40981,88.54377 -0.0594,0.059 -3.48742,-11.187 -7.61787,-24.99197 z"
       id="path3944"
       inkscape:connector-curvature="0"
       style="stroke-width:0.50507629"
       transform="scale(0.26458333)" />
    <path
       d="m 329.45457,1061.6125 c -0.29113,-0.7639 -0.62901,-2.0708 -0.75083,-2.9042 -0.15231,-1.0418 0.0836,-0.7263 0.75522,1.0102 0.53719,1.389 0.99434,2.2316 1.01587,1.8725 0.0215,-0.359 -7.78256,-27.2922 -17.34241,-59.8515 -15.22352,-51.8488 -23.85846,-81.36866 -28.98793,-99.09972 -0.80363,-2.77792 -1.37225,-5.15483 -1.2636,-5.28203 0.10865,-0.12719 15.81397,15.38496 34.90072,34.47145 l 34.70318,34.70271 8.59908,28.66309 c 4.7295,15.7647 8.80708,28.6631 9.06131,28.6631 0.25422,0 0.84516,-1.2501 1.3132,-2.7779 0.46804,-1.5279 7.33801,-24.38937 15.26661,-50.80333 l 14.41563,-48.02538 28.74762,-57.49345 28.74761,-57.49346 0.33585,32.28278 c 0.18472,17.75552 0.33605,38.9551 0.33629,47.11019 l 4.3e-4,14.82741 -22.50578,72.0457 c -12.37819,39.62514 -23.63804,75.62394 -25.0219,79.99734 l -2.51611,7.9515 -35.71352,0.1363 -35.71353,0.1363 36.23928,-0.01 c 28.65829,-0.01 36.23927,0.1254 36.23922,0.6247 -4e-5,0.4998 -8.37002,0.6313 -40.16612,0.6313 h -40.16607 l -0.52932,-1.3889 z"
       id="path3946"
       inkscape:connector-curvature="0"
       style="stroke-width:0.50507629"
       transform="scale(0.26458333)" />
    <path
       d="m 427.16014,772.70234 -17.24852,-0.13284 -0.17661,-2.21989 c -0.16017,-2.01337 -0.0121,-2.35864 1.59116,-3.71139 0.97228,-0.82033 11.87998,-10.50664 24.23933,-21.52512 12.35936,-11.01849 22.54054,-19.82669 22.62485,-19.57378 0.0843,0.25291 -2.90393,10.65701 -6.64052,23.12023 -3.73659,12.46322 -6.87195,23.00133 -6.96748,23.41801 -0.15095,0.65847 -2.43091,0.74023 -17.42221,0.62478 z"
       id="path3948"
       inkscape:connector-curvature="0"
       style="stroke-width:0.50507629"
       transform="scale(0.26458333)" />
    <path
       d="m 306.77539,745.4538 c -12.63954,-11.21118 -23.42923,-20.83052 -23.9771,-21.3763 -0.99021,-0.98645 -0.85479,-0.99234 22.83182,-0.99234 h 23.82794 l 0.29444,1.6415 c 0.16194,0.90283 0.22906,10.52216 0.14916,21.3763 l -0.14529,19.7348 z"
       id="path3950"
       inkscape:connector-curvature="0"
       style="stroke-width:0.50507629"
       transform="scale(0.26458333)" />
    <path
       d="m 409.91623,745.37317 c 0.0977,-14.0892 0.32731,-21.40823 0.68264,-21.76323 0.36531,-0.36497 8.01058,-0.49317 24.06713,-0.40356 l 23.53173,0.13132 -22.80443,20.31168 c -12.54244,11.17142 -23.43891,20.90578 -24.21438,21.6319 l -1.40994,1.32023 z"
       id="path3952"
       inkscape:connector-curvature="0"
       style="stroke-width:0.50507629"
       transform="scale(0.26458333)" />
    <path
       d="m 335.691,771.00938 -5.68211,-5.06519 0.0341,-19.78802 0.0341,-19.78801 5.78108,24.24366 c 3.17959,13.33402 5.7212,24.51796 5.64801,24.85321 -0.0732,0.33526 -2.69001,-1.66979 -5.81517,-4.45565 z"
       id="path3954"
       inkscape:connector-curvature="0"
       style="stroke-width:0.50507629"
       transform="scale(0.26458333)" />
    <path
       d="m 398.3351,775.6131 c 0.17165,-0.69448 2.71978,-11.60413 5.66252,-24.24366 2.94274,-12.63954 5.44561,-23.20826 5.56193,-23.48605 0.11633,-0.27779 0.16366,8.3284 0.10518,19.12486 l -0.10632,19.62994 -2.27285,2.01924 c -9.51671,8.45486 -9.27447,8.26661 -8.95046,6.95567 z"
       id="path3956"
       inkscape:connector-curvature="0"
       style="stroke-width:0.50507629"
       transform="scale(0.26458333)" />
    <path
       d="m 404.28296,911.66139 c -0.0218,-0.44965 38.76952,-130.67372 40.93997,-137.43725 l 0.52677,-1.6415 h 6.77936 6.77936 l -0.0278,15.02602 -0.0278,15.02602 -27.471,54.80077 c -15.10902,30.14043 -27.48348,54.5421 -27.4988,54.22594 z"
       id="path3958"
       inkscape:connector-curvature="0"
       style="stroke-width:0.50507629"
       transform="scale(0.26458333)" />
    <path
       d="m 445.97507,771.44622 c 0.20448,-0.62503 3.27355,-10.79601 6.82016,-22.60217 l 6.44837,-21.46574 0.0324,22.60217 0.0324,22.60216 h -6.85257 -6.85256 z"
       id="path3960"
       inkscape:connector-curvature="0"
       style="stroke-width:0.50507629"
       transform="scale(0.26458333)" />
    <path
       d="m 460.82365,762.73365 v -39.64849 h 39.14341 39.14341 v 39.64849 39.64849 h -39.14341 -39.14341 z"
       id="path3962"
       inkscape:connector-curvature="0"
       style="stroke-width:0.50507629"
       transform="scale(0.26458333)" />
    <path
       d="m 460.82365,892.53825 v -90.15611 h 39.14341 39.14341 v 90.15611 90.15612 h -39.14341 -39.14341 z"
       id="path3964"
       inkscape:connector-curvature="0"
       style="stroke-width:0.50507629"
       transform="scale(0.26458333)" />
    <path
       d="m 460.82365,1022.3429 v -39.64853 h 39.14341 39.14341 v 39.64853 39.6484 h -39.14341 -39.14341 z"
       id="path3966"
       inkscape:connector-curvature="0"
       style="stroke-width:0.50507629"
       transform="scale(0.26458333)" />
    <path
       style="fill:none;stroke:#000000;stroke-width:0.26458332px;stroke-linecap:butt;stroke-linejoin:miter;stroke-opacity:1"
       d="m -121.70833,111.79167 h 34.39583 l 10.64178,44.97916 10.52488,-44.97916 H -31.75 V 201.75 H -52.91667 V 159.41666 L -66.14584,201.75 H -87.3125 l -13.22917,-44.97917 V 201.75 h -21.16666 v -89.95833"
       id="path3926-8"
       inkscape:connector-curvature="0" />
    <path
       style="fill:none;stroke:#000000;stroke-width:0.26458332px;stroke-linecap:butt;stroke-linejoin:miter;stroke-opacity:1"
       d="M -224.89583,265.25 V 175.29167 H -190.5 l 10.58334,44.97916 10.58333,-44.97916 h 34.39583 c 0,0 0,89.95833 0,89.95833 h -34.39583 V 220.27083 L -179.91666,265.25 -190.5,220.27083 V 265.25 Z"
       id="path3983"
       inkscape:connector-curvature="0" />
    <path
       style="fill:none;stroke:#000000;stroke-width:0.26458332px;stroke-linecap:butt;stroke-linejoin:miter;stroke-opacity:1"
       d="m -145.52083,355.20833 23.8125,-68.79166 h 21.16666 V 376.375 h -21.16666 V 334.04167 L -134.9375,376.375 h -21.16666 l -13.22917,-44.97917 V 376.375 h -21.16666 v -89.95833 h 21.16666 z"
       id="path4006"
       inkscape:connector-curvature="0" />
    <path
       style="fill:none;stroke:#000000;stroke-width:0.26458332px;stroke-linecap:butt;stroke-linejoin:miter;stroke-opacity:1"
       d="m -261.9375,336.6875 10.58334,-55.5625 h 34.39583 v 89.95833 H -238.125 V 328.75 l -13.22916,42.33333 h -21.16667 L -285.75,326.10416 v 44.97917 h -21.16666 V 281.125 h 34.39583 z"
       id="path4023"
       inkscape:connector-curvature="0" />
    <path
       style="fill:none;stroke:#000000;stroke-width:0.26458332px;stroke-linecap:butt;stroke-linejoin:miter;stroke-opacity:1"
       d="m -55.562499,429.29166 v -44.97917 l 10.583334,44.97917 h 21.166666 l 10.583333,-44.97917 v 44.97917 h 23.812499 v -89.95833 h -26.458332 -5.291667 l -13.229166,58.20833 -13.229167,-58.20833 h -31.749994 v 89.95833 h 23.812494"
       id="path4025"
       inkscape:connector-curvature="0" />
    <path
       style="fill:none;stroke:#000000;stroke-width:0.26458332px;stroke-linecap:butt;stroke-linejoin:miter;stroke-opacity:1"
       d="m -388.93749,286.41667 10.58333,47.625 10.58333,-47.625 h 34.39583 v 89.95834 c 0,0 -23.81249,0 -23.81249,0 v -44.97917 c 0,0 -10.58334,44.97917 -10.58334,44.97917 h -21.16666 l -10.58334,-44.97917 v 44.97917 h -23.8125 v -89.95834 z"
       inkscape:connector-curvature="0"
       id="path4027" />
    <path
       style="fill:none;stroke:#000000;stroke-width:0.26458332px;stroke-linecap:butt;stroke-linejoin:miter;stroke-opacity:1"
       d="m -283.10416,498.08332 13.22917,-52.91666 c 0,0 0,52.91666 0,52.91666 h 23.8125 v -89.95833 h -34.39584 l -10.58333,47.625 -10.58333,-47.625 h -34.39583 c 0,0 0,89.95833 0,89.95833 h 23.81249 v -52.91666 l 13.22917,52.91666 z"
       id="path4031"
       inkscape:connector-curvature="0" />
    <path
       style="fill:none;stroke:#000000;stroke-width:0.26458332px;stroke-linecap:butt;stroke-linejoin:miter;stroke-opacity:1"
       d="M -58.208333,442.52083 -37.041667,476.91667 -15.875,442.52083 H 7.9374992 v 89.95834 H -15.875 v -31.75 l -21.166667,31.75 -21.166666,-31.75 v 31.75 h -23.8125 v -89.95834 z"
       id="path4035"
       inkscape:connector-curvature="0" />
    <path
       style="fill:#000000;fill-opacity:1;stroke:#000000;stroke-width:0.26458332px;stroke-linecap:butt;stroke-linejoin:miter;stroke-opacity:1"
       d="m -214.3125,664.77083 10.58334,-55.5625 h 34.39583 v 89.95833 H -190.5 v -42.33333 l -13.22916,42.33333 h -21.16667 L -238.125,654.18749 v 44.97917 h -21.16666 v -89.95833 h 34.39583 z"
       id="path4023-7"
       inkscape:connector-curvature="0" />
    <flowRoot
       xml:space="preserve"
       id="flowRoot4861"
       style="font-style:normal;font-weight:normal;font-size:40px;line-height:1.25;font-family:sans-serif;letter-spacing:0px;word-spacing:0px;fill:#ffffff;fill-opacity:1;stroke:none"
       transform="matrix(2.170321,0.06899124,-0.09766465,2.0153644,2559.3954,-4149.6739)"><flowRegion
         id="flowRegion4863"
         style="fill:#ffffff;fill-opacity:1"><rect
           id="rect4865"
           width="130"
           height="170"
           x="-1170"
           y="2402.5198"
           style="fill:#ffffff;fill-opacity:1" /></flowRegion><flowPara
         id="flowPara4867">S</flowPara></flowRoot>    <path
       style="fill:#000000;fill-opacity:1;stroke:#000000;stroke-width:0.26458332px;stroke-linecap:butt;stroke-linejoin:miter;stroke-opacity:1"
       d="m -317.95395,627.27522 -31.80507,-46.77218 24.32152,-24.32152 63.61015,63.61014 -14.9671,14.9671 -29.93418,-29.93418 20.57976,39.28861 -14.9671,14.9671 -41.15951,-22.45064 31.80507,31.80507 -14.96708,14.96709 -63.61015,-63.61014 24.32152,-24.32153 z"
       id="path4023-7-6"
       inkscape:connector-curvature="0" />
    <flowRoot
       xml:space="preserve"
       id="flowRoot4861-9"
       style="font-style:normal;font-weight:normal;font-size:40px;line-height:1.25;font-family:sans-serif;letter-spacing:0px;word-spacing:0px;fill:#ffffff;fill-opacity:1;stroke:none"
       transform="matrix(2.6831557,0.09204443,-0.12074225,2.6887916,3076.3974,-5784.2366)"><flowRegion
         id="flowRegion4863-1"
         style="fill:#ffffff;fill-opacity:1"><rect
           id="rect4865-9"
           width="130"
           height="170"
           x="-1170"
           y="2402.5198"
           style="fill:#ffffff;fill-opacity:1" /></flowRegion><flowPara
         id="flowPara4867-4">S</flowPara></flowRoot>    <path
       style="fill:#000000;fill-opacity:1;stroke:#000000;stroke-width:0.26458332px;stroke-linecap:butt;stroke-linejoin:miter;stroke-opacity:1"
       d="m -376.35032,737.4923 -31.80507,-46.77218 24.32152,-24.32152 63.61015,63.61014 -14.9671,14.9671 -29.93418,-29.93418 20.57976,39.28861 -14.9671,14.9671 -41.15951,-22.45064 31.80507,31.80507 -14.96708,14.96709 -63.61015,-63.61014 24.32152,-24.32153 z"
       id="path4023-7-6-6"
       inkscape:connector-curvature="0" />
    <path
       style="fill:#ffffff;fill-opacity:1;stroke:#000000;stroke-width:0.26458332px;stroke-linecap:butt;stroke-linejoin:miter;stroke-opacity:1"
       d="m -359.83333,720.33333 c 0.16314,-0.26009 0.32631,-0.52015 0.48945,-0.78021 0.0446,-0.13364 0.0707,-0.27492 0.13364,-0.40092 0.0718,-0.14364 0.16693,-0.27548 0.26726,-0.40089 0.33398,-0.41746 1.29283,-1.09705 1.73725,-1.33636 0.29869,-0.16082 0.62744,-0.25874 0.93547,-0.4009 0.2713,-0.12523 0.52596,-0.28596 0.80179,-0.4009 0.26006,-0.10837 0.54533,-0.1507 0.80182,-0.26728 0.23646,-0.10747 0.43585,-0.28474 0.66818,-0.40089 0.25196,-0.126 0.56023,-0.12232 0.80179,-0.26729 0.10803,-0.0648 0.17817,-0.17817 0.26728,-0.26725 0.0891,-0.0891 0.20244,-0.15923 0.26726,-0.26728 0.0725,-0.12079 0.0813,-0.27012 0.13364,-0.4009 0.037,-0.0925 0.0967,-0.17478 0.13364,-0.26726 0.0523,-0.13081 0.0813,-0.27011 0.13362,-0.40092 0.037,-0.0925 0.11411,-0.1696 0.13364,-0.26726 0.0262,-0.13104 0,-0.26728 0,-0.40089 0,-0.44545 0,-0.89091 0,-1.33636 0,-0.44545 0,-0.8909 0,-1.33636 0,-0.17817 0.0196,-0.35745 0,-0.53453 -0.0251,-0.22575 -0.0963,-0.44413 -0.13364,-0.66818 -0.007,-0.0439 0,-0.0891 0,-0.13362 -0.0445,-0.26728 -0.0805,-0.53612 -0.13362,-0.80182 -0.036,-0.1801 -0.0938,-0.35525 -0.13364,-0.53454 -0.0493,-0.22172 -0.0844,-0.44645 -0.13364,-0.66817 -0.0399,-0.17929 -0.10766,-0.35272 -0.13364,-0.53454 -0.0188,-0.13229 0.019,-0.26861 0,-0.4009 -0.16606,-1.16247 -0.0769,0.0164 -0.26726,-0.93543 -0.0175,-0.0874 0.0282,-0.18278 0,-0.26728 -0.063,-0.189 -0.20428,-0.34555 -0.26728,-0.53454 -0.0282,-0.0845 0.0331,-0.18455 0,-0.26728 -0.31533,-0.78836 -0.24283,-0.0114 -0.4009,-0.8018 -0.0175,-0.0874 0.0127,-0.17907 0,-0.26728 -0.0321,-0.22484 -0.0963,-0.44413 -0.13364,-0.66818 -0.0668,-0.4009 0.13364,0.26728 0,-0.4009 -0.0552,-0.27625 -0.19894,-0.52847 -0.26725,-0.80179 -0.0109,-0.0432 0.014,-0.0914 0,-0.13364 -0.0315,-0.0945 -0.10949,-0.17063 -0.13364,-0.26728 -0.0314,-0.12576 0.0314,-0.27512 0,-0.4009 -0.0342,-0.13666 -0.0995,-0.26424 -0.13365,-0.4009 -0.0108,-0.0432 0,-0.0891 0,-0.13364 0,-0.17817 0,-0.35636 0,-0.53453 0,-0.0446 0.0109,-0.0904 0,-0.13365 -0.0342,-0.13665 -0.0994,-0.26423 -0.13364,-0.40089 -0.0551,-0.22035 -0.0539,-0.45551 -0.13361,-0.66818 -0.0564,-0.15039 -0.20762,-0.25178 -0.26728,-0.4009 -0.0382,-0.0955 0.019,-0.28636 0,-0.40089 -0.0373,-0.22405 -0.0963,-0.44413 -0.13364,-0.66818 -0.0276,-0.166 0,-0.67255 0,-0.80182 0,-0.0445 0.0108,-0.0904 0,-0.13364 -0.10237,-0.40947 -0.0569,-0.32417 -0.26726,-0.53454 -0.0446,-0.0445 -0.0987,-0.0812 -0.13364,-0.13362 -0.0553,-0.0829 -0.0891,-0.17819 -0.13364,-0.26728 -0.17786,-0.3557 -0.0894,-0.17883 -0.26726,-0.53454 -0.0446,-0.0891 -0.0739,-0.18758 -0.13364,-0.26728 -0.0756,-0.10078 -0.17817,-0.17817 -0.26725,-0.26725 -0.1782,-0.17817 -0.35637,-0.35637 -0.53454,-0.53454 -0.2576,-0.2576 -0.21791,-0.27427 -0.53457,-0.4009 -0.13078,-0.0523 -0.28368,-0.0555 -0.40089,-0.13364 -0.405,-0.40502 -0.33669,-0.38909 -0.8018,-0.66818 -0.0854,-0.0512 -0.18187,-0.0824 -0.26728,-0.13364 -0.13771,-0.0826 -0.26318,-0.18462 -0.4009,-0.26725 -0.0854,-0.0512 -0.18187,-0.0824 -0.26728,-0.13364 -0.13771,-0.0826 -0.26725,-0.17818 -0.40089,-0.26729 -0.13364,-0.0891 -0.27549,-0.16692 -0.4009,-0.26725 -0.0984,-0.0787 -0.1782,-0.17817 -0.26728,-0.26728 -0.17817,-0.17818 -0.35637,-0.35635 -0.53454,-0.53454 -0.26726,-0.26726 -0.53454,-0.53454 -0.80179,-0.8018 -0.0891,-0.0891 -0.19741,-0.16245 -0.26729,-0.26728 -0.0552,-0.0829 -0.0784,-0.18439 -0.13364,-0.26725 -0.10279,-0.1542 -0.2981,-0.24673 -0.40089,-0.40093 -0.16786,-0.25175 -0.22503,-0.75956 -0.4009,-0.93543 -0.0315,-0.0315 -0.11372,0.0399 -0.13364,0 -0.21172,-0.42341 0.27654,-0.12436 -0.13364,-0.53454 -0.0704,-0.0704 -0.19683,-0.0632 -0.26726,-0.13364 -0.0704,-0.0704 -0.0632,-0.19682 -0.13364,-0.26726 -0.008,-0.008 -0.50964,-0.25069 -0.53454,-0.26728 -0.3058,-0.20386 0.0836,-0.10578 -0.40089,-0.26725 -0.0423,-0.014 -0.0891,0 -0.13364,0 -0.13365,-0.0446 -0.27012,-0.0813 -0.40093,-0.13364 -0.60558,-0.24223 -0.0185,-0.0124 -0.40089,-0.26729 -0.16577,-0.11049 -0.36373,-0.16475 -0.53454,-0.26725 -0.13772,-0.0826 -0.25726,-0.19545 -0.4009,-0.26728 -0.12599,-0.063 -0.27143,-0.0781 -0.40089,-0.13362 -1.21669,-0.60835 0.0477,-0.008 -0.93547,-0.40092 -0.0925,-0.037 -0.18438,-0.0784 -0.26725,-0.13362 -0.0524,-0.0349 -0.0891,-0.0891 -0.13364,-0.13364 -0.21754,-0.21754 -0.24958,-0.30591 -0.53454,-0.40092 -0.0423,-0.014 -0.0914,0.014 -0.13364,0 -0.0945,-0.0315 -0.17063,-0.10946 -0.26726,-0.13361 -0.20947,-0.0524 -0.45458,0.0356 -0.66818,0 -0.22272,-0.0446 -0.44545,-0.0891 -0.66817,-0.13365 -0.13365,0 -0.26861,0.0188 -0.4009,0 -0.18182,-0.0259 -0.35274,-0.10765 -0.53454,-0.13364 -0.13229,-0.0188 -0.26728,0 -0.40092,0 -0.17817,0 -0.35634,0 -0.53454,0 -0.13361,0 -0.2686,0.0188 -0.4009,0 -0.44182,-0.0631 -0.47297,-0.10284 -0.80182,-0.26725 -0.0891,-0.0446 -0.17277,-0.10216 -0.26725,-0.13364 -0.0423,-0.014 -0.0891,0 -0.13364,0 -0.21585,0 -0.72422,0.0264 -0.93544,0 -0.39666,0.0726 -0.70675,-0.20688 -1.06907,-0.26729 -0.13182,-0.022 -0.26832,0.0167 -0.40093,0 -0.98509,-0.12313 -0.34178,-0.0854 -1.06907,-0.26725 -0.22035,-0.0551 -0.44643,-0.0844 -0.66818,-0.13364 -1.05987,-0.23553 -0.0528,0.0539 -0.93543,-0.53454 -0.11721,-0.0781 -0.27012,-0.0813 -0.4009,-0.13364 -0.35637,-0.14253 -0.22498,-0.17862 -0.66818,-0.26726 -0.13274,-0.0266 -0.70395,0 -0.80182,0 -0.13361,0 -0.27239,0.0367 -0.4009,0 -0.19153,-0.0547 -0.348,-0.19732 -0.53453,-0.26728 -0.17198,-0.0645 -0.35637,-0.0891 -0.53454,-0.13364 -0.5774,-0.14433 -1.15986,-0.25654 -1.73726,-0.4009 -0.17817,-0.0445 -0.3603,-0.0755 -0.53453,-0.13364 -0.0945,-0.0315 -0.17479,-0.0966 -0.26726,-0.13361 -0.13081,-0.0523 -0.27014,-0.0813 -0.40092,-0.13364 -0.18495,-0.074 -0.34555,-0.20429 -0.53454,-0.26729 -0.0754,-0.0251 -0.31308,0 -0.4009,0 -0.17817,0 -0.35774,-0.022 -0.53453,0 -0.26887,0.0336 -0.53221,0.10668 -0.80182,0.13365 -0.1773,0.0177 -0.35634,0 -0.53454,0 -0.75727,0 -1.51453,0 -2.27179,0 -0.31181,0 -0.62363,0 -0.93544,0 -0.13364,0 -0.26987,-0.0262 -0.40089,0 -0.0977,0.0196 -0.17278,0.10212 -0.26729,0.13364 -0.0422,0.014 -0.0914,-0.014 -0.13364,0 -0.48445,0.16147 -0.0951,0.0634 -0.40089,0.26725 -0.0829,0.0553 -0.17817,0.0891 -0.26726,0.13364 -0.312,0.156 -0.59674,0.30414 -0.93546,0.4009 -0.57282,0.16367 -1.15663,0.27189 -1.73725,0.40092 -0.17929,0.0399 -0.35793,0.0832 -0.53454,0.13364 -0.13544,0.0387 -0.26276,0.106 -0.4009,0.13362 -0.0874,0.0175 -0.17817,0 -0.26728,0 -0.37489,0 -0.45,-0.0423 -0.80179,0.13364 -0.55616,0.27808 0.14284,-0.009 -0.13365,0.26728 -0.27648,0.27649 0.0109,-0.42254 -0.26725,0.13362 -0.0198,0.0398 0.014,0.0914 0,0.13364 -0.0326,0.0977 -0.14497,0.33975 -0.26728,0.40089 -0.0399,0.0198 -0.0914,-0.014 -0.13364,0 -0.0945,0.0315 -0.17063,0.10949 -0.26726,0.13365 -0.0864,0.0217 -0.1782,0 -0.26728,0 -0.13364,0.0445 -0.26726,0.0891 -0.4009,0.13364 -0.26728,0.0891 -0.54022,0.16264 -0.80182,0.26725 -0.18494,0.074 -0.34126,0.21897 -0.53454,0.26728 -0.0864,0.0217 -0.17817,0 -0.26725,0 -0.0446,0 -0.0938,-0.0198 -0.13364,0 -0.16037,0.0802 -0.24054,0.32073 -0.4009,0.4009 -0.14306,0.0715 -0.28519,-0.1157 -0.53454,0.13364 -0.0704,0.0704 -0.0632,0.19685 -0.13364,0.26728 -0.0704,0.0704 -0.18439,0.0784 -0.26728,0.13362 -0.57629,0.3842 0.69323,-0.22384 -0.53454,0.26728 -0.22807,-0.0473 -0.25725,0.19545 -0.40089,0.26726 -0.0399,0.0198 -0.0938,-0.0199 -0.13365,0 -0.0563,0.0282 -0.0773,0.10546 -0.13361,0.13364 -0.0399,0.0198 -0.0914,-0.014 -0.13364,0 -0.0945,0.0315 -0.17277,0.10213 -0.26728,0.13364 -0.052,0.0175 -0.38016,-0.0206 -0.4009,0 -0.24934,0.24934 -0.0621,0.39148 -0.13364,0.53454 -0.0282,0.0563 -0.0987,0.0812 -0.13364,0.13364 -0.0553,0.0829 -0.0632,0.19682 -0.13362,0.26725 -0.0704,0.0704 -0.19685,0.0632 -0.26728,0.13364 -0.0704,0.0704 -0.0891,0.17817 -0.13364,0.26726 -0.0445,0.0891 -0.10213,0.1728 -0.13361,0.26728 -0.014,0.0423 0.0198,0.0938 0,0.13364 -0.0818,0.16349 -0.2707,0.1696 -0.40093,0.26726 -0.10078,0.0756 -0.17817,0.17819 -0.26725,0.26728 -0.0891,0.0891 -0.1782,0.17817 -0.26729,0.26726 -0.0891,0.0891 -0.15922,0.20245 -0.26725,0.26728 -0.12078,0.0725 -0.28012,0.0611 -0.40092,0.13364 -0.10803,0.0648 -0.16889,0.18854 -0.26726,0.26725 -0.12541,0.10033 -0.26318,0.18466 -0.4009,0.26729 -0.0854,0.0513 -0.19685,0.0632 -0.26728,0.13361 -0.0704,0.0704 -0.0784,0.18442 -0.13364,0.26728 -0.0349,0.0524 -0.0891,0.0891 -0.13361,0.13364 -0.64535,0.64532 0.1747,-0.13978 -0.66818,0.53454 -0.83728,0.66982 0.56274,-0.24154 -0.80182,0.66818 -0.8059,0.48353 -0.45204,0.25681 -1.06908,0.66815 -0.13364,0.0891 -0.27548,0.16696 -0.40089,0.26729 -0.19678,0.1574 -0.33296,0.38335 -0.53454,0.53453 -0.13023,0.0977 -0.31917,0.10377 -0.4009,0.26728 -0.063,0.12597 -0.0813,0.27012 -0.13364,0.4009 -0.10927,0.27313 -0.26929,0.53859 -0.40092,0.80179 -0.0445,0.0891 -0.0891,0.1782 -0.13362,0.26729 -0.0446,0.0891 -0.0739,0.18759 -0.13364,0.26725 -0.0756,0.10081 -0.21092,0.1546 -0.26728,0.26728 -0.0398,0.0797 0.0282,0.18275 0,0.26726 -0.0198,0.0598 -0.0987,0.0812 -0.13362,0.13364 -0.0553,0.0829 -0.0891,0.1782 -0.13364,0.26728 -0.0891,0.0891 -0.19169,0.16648 -0.26728,0.26726 -0.0597,0.0797 -0.0784,0.18439 -0.13361,0.26728 -0.035,0.0524 -0.10547,0.0773 -0.13364,0.13364 -0.16457,0.32912 0.3879,-0.12065 -0.13364,0.4009 -0.28398,0.28398 -0.72454,0.3814 -1.06908,0.53454 -1.1335,0.50379 0.15184,0.0444 -1.46997,0.66818 -0.26297,0.10112 -0.54176,0.1589 -0.80182,0.26725 -0.27583,0.11494 -0.52978,0.27726 -0.80182,0.40092 -0.21836,0.0992 -0.4536,0.15997 -0.66815,0.26726 -0.14367,0.0718 -0.26729,0.17817 -0.40093,0.26728 -0.13361,0.0891 -0.27241,0.1709 -0.40089,0.26726 -0.0504,0.0378 -0.0891,0.0891 -0.13365,0.13364 -0.0445,0.0445 -0.10546,0.0773 -0.13361,0.13364 -0.0198,0.0399 0,0.0891 0,0.13361 0,0.0891 0.0217,0.18085 0,0.26729 -0.0241,0.0966 -0.10216,0.17277 -0.13364,0.26725 -0.014,0.0423 0.014,0.0914 0,0.13364 -0.1615,0.48448 -0.0634,0.0951 -0.26728,0.40093 -0.0553,0.0829 -0.0891,0.17817 -0.13364,0.26725 -0.0445,0.0891 -0.10213,0.17277 -0.13362,0.26728 -0.014,0.0423 0,0.0891 0,0.13362 -0.0446,0.13364 -0.0813,0.27011 -0.13364,0.40092 -0.0289,0.0722 -0.36848,0.76938 -0.4009,0.80179 -0.0315,0.0315 -0.10215,-0.0315 -0.13364,0 -0.29183,0.29184 -0.0278,0.21699 -0.13364,0.53454 -0.0198,0.0598 -0.0891,0.0891 -0.13364,0.13364 -0.0445,0.0446 -0.0773,0.10547 -0.13361,0.13364 -0.23657,0.11827 -0.0457,-0.19878 -0.26729,0.13365 -0.15356,0.23032 -0.13364,0.20198 -0.13364,0.40089 0,0.0445 0.0199,0.0938 0,0.13364 -0.0563,0.11269 -0.21092,0.15457 -0.26725,0.26726 -0.0199,0.0398 0.014,0.0914 0,0.13364 -0.063,0.18899 -0.20429,0.34555 -0.26728,0.53454 -0.014,0.0422 0.014,0.0914 0,0.13364 -0.0315,0.0945 -0.10213,0.17277 -0.13365,0.26725 -0.0265,0.0797 0,0.67234 0,0.80182 0,0.10322 -0.0272,0.72028 0,0.8018 0.1782,0.53453 0.0446,0.0446 0.40093,0.40092 0.0315,0.0315 -0.0199,0.0938 0,0.13361 0.0282,0.0564 0.10546,0.0773 0.13364,0.13365 0.0394,0.0788 -0.0306,0.30898 0,0.40089 0.0315,0.0945 0.10213,0.1728 0.13361,0.26728 0.0306,0.0919 -0.0394,0.32206 0,0.4009 0.0282,0.0564 0.0891,0.0891 0.13364,0.13364 0.13584,0.13584 0.21334,0.18516 0.26729,0.4009 0.0217,0.0864 0,0.1782 0,0.26728 0,0.0445 -0.0199,0.0938 0,0.13364 0.0281,0.0563 0.0891,0.0891 0.13361,0.13362 0,0.0891 -0.0217,0.18084 0,0.26728 0.16134,0.64532 0.0635,-0.007 0.26728,0.4009 0.0394,0.0788 -0.0306,0.30898 0,0.40089 0.0315,0.0945 0.10213,0.1728 0.13364,0.26728 0.0282,0.0845 -0.0282,0.18275 0,0.26729 0.0315,0.0945 0.10213,0.17277 0.13362,0.26725 0.0473,0.142 -0.0473,0.39254 0,0.53454 0.0315,0.0945 0.0891,0.17817 0.13364,0.26728 0.0446,0.0891 0.0784,0.18439 0.13364,0.26726 0.0349,0.0524 0.11372,0.0739 0.13364,0.13364 0.0401,0.12028 -0.0401,0.28064 0,0.40089 0.0315,0.0945 0.0891,0.1782 0.13362,0.26729 0.0445,0.0891 0.0632,0.19682 0.13364,0.26725 0.0315,0.0315 0.0891,0 0.13364,0 0.0446,0.0446 0.0987,0.0812 0.13364,0.13364 0.25315,-0.0151 0.0891,0.31182 0.13364,0.4009 0.30578,0.61161 -0.0554,-0.56705 0.26726,0.40092 0.014,0.0423 -0.0198,0.0938 0,0.13362 0.0592,0.11845 0.3198,0.27927 0.40089,0.40092 0.0553,0.0829 0.0632,0.19682 0.13364,0.26726 0.0704,0.0704 0.18759,0.0739 0.26729,0.13364 0.10078,0.0756 0.16647,0.19166 0.26725,0.26725 0.0797,0.0598 0.1895,0.0714 0.26728,0.13364 0.14756,0.11806 0.26726,0.26729 0.4009,0.40093 0.4009,0.40089 0.80182,0.80179 1.20272,1.20269 0.0856,0.0856 0.40947,0.45117 0.53453,0.53454 0.0829,0.0553 0.17278,0.10215 0.26726,0.13364 0.24686,0.0823 0.0634,-0.20392 0.40092,0.13364 0.64688,0.64688 -0.2898,-0.1006 0.13362,0.53454 0.0553,0.0829 0.19685,0.0632 0.26728,0.13364 0.0704,0.0704 0.0739,0.18759 0.13364,0.26725 0.0756,0.10081 0.17817,0.1782 0.26726,0.26728 0.0446,0.0445 0.10123,0.0796 0.13364,0.13364 0.15721,0.26202 0.3034,0.7043 0.53454,0.93544 0.48143,0.48144 0.48016,0.28877 0.93543,0.66818 0.24199,0.20164 0.44545,0.44545 0.66818,0.66818 0.0446,0.0445 0.0812,0.0987 0.13364,0.13361 0.29578,0.1972 0.30334,0.0541 0.53454,0.40092 0.0246,0.037 -0.0315,0.10213 0,0.13362 0.0704,0.0704 0.18759,0.0739 0.26728,0.13364 1.04407,0.78306 -0.60939,-0.23789 0.66815,0.4009 0.65405,0.32702 0.171,0.16166 0.66818,0.53453 0.1791,0.13433 0.47567,0.19029 0.66818,0.26729 0.0925,0.037 0.17817,0.0891 0.26728,0.13364 0.0891,0.0891 0.15457,0.21092 0.26726,0.26725 0.0797,0.0399 0.18274,-0.0281 0.26728,0 0.0597,0.0199 0.0812,0.0987 0.13361,0.13364 0.0829,0.0553 0.17481,0.0967 0.26729,0.13365 0.13078,0.0523 0.28368,0.0555 0.40089,0.13364 0.0371,0.0246 -0.0315,0.10213 0,0.13361 0.0704,0.0704 0.1782,0.0891 0.26728,0.13364 0.17817,0.0891 0.34957,0.19328 0.53454,0.26728 0.26157,0.10462 0.54023,0.16264 0.80179,0.26726 0.0925,0.037 0.17479,0.0966 0.26729,0.13364 0.13078,0.0523 0.27011,0.0813 0.40089,0.13364 0.27379,0.10951 0.52229,0.30771 0.80182,0.4009 0.0423,0.014 0.0938,-0.0199 0.13362,0 0.0564,0.0282 0.0773,0.10546 0.13364,0.13364 0.0399,0.0198 0.0904,-0.0109 0.13364,0 0.13666,0.0342 0.26728,0.0891 0.4009,0.13364 0.26728,0.0891 0.53094,0.18987 0.80182,0.26726 0.17658,0.0504 0.35861,0.0808 0.53453,0.13364 0.26985,0.0809 0.53253,0.18441 0.8018,0.26725 0.30996,0.0954 0.63278,0.15087 0.93546,0.26728 0.2789,0.10727 0.52435,0.28994 0.80179,0.4009 0.22865,0.0915 1.00526,0.21791 1.20272,0.26728 0.13666,0.0342 0.26426,0.0995 0.40092,0.13362 0.0864,0.0217 0.18082,-0.0217 0.26726,0 0.26836,-0.0307 0.43545,0.2091 0.66818,0.26728 0.26286,0.0657 0.53218,0.10668 0.80179,0.13364 0.1773,0.0177 0.35711,-0.0161 0.53456,0 0.98571,0.0896 0.97094,0.20267 2.00451,0.26726 0.35566,0.0222 0.71517,-0.0416 1.06908,0 0.40788,0.048 0.79827,0.19589 1.20271,0.26728 0.35367,0.0624 0.71356,0.0828 1.06908,0.13364 0.26823,0.0383 0.5325,0.10369 0.80182,0.13361 0.31779,0.0353 0.41754,0.0335 0.66815,-0.13361 0.0524,-0.035 0.0773,-0.10546 0.13364,-0.13364 0.0797,-0.0399 0.20429,0.063 0.26729,0 0.0315,-0.0315 -0.0315,-0.10216 0,-0.13364 0.0315,-0.0315 0.0891,0 0.13361,0 0.0891,0 0.18457,-0.0331 0.26728,0 0.7878,0.31512 0.15613,0.14864 0.53454,0.40089 0.0829,0.0553 0.18439,0.0784 0.26728,0.13365 0.0524,0.0349 0.0773,0.10546 0.13362,0.13364 0.12599,0.063 0.27011,0.0813 0.40092,0.13364 0.18494,0.074 0.34555,0.20426 0.53454,0.26725 0.0845,0.0282 0.18274,-0.0282 0.26725,0 0.0891,0.0446 0.1782,0.0891 0.26728,0.13364 0,0.0445 -0.0315,0.10213 0,0.13365 0.25236,0.25235 0.25226,0.063 0.53454,0.13361 0.0966,0.0241 0.17817,0.0891 0.26726,0.13364 0.64693,0.32348 -0.14087,-0.10565 0.53454,0.4009 0.13022,0.0977 0.31916,0.10379 0.40092,0.26728 0.0198,0.0399 -0.0315,0.10213 0,0.13364 0.0273,0.0273 0.3479,-0.0265 0.4009,0 0.0564,0.0282 0.10546,0.0773 0.13364,0.13362 0.0198,0.0398 -0.0399,0.11371 0,0.13364 0.0797,0.0398 0.18759,-0.0399 0.26725,0 0.11269,0.0563 0.16889,0.18856 0.26728,0.26728 0.12542,0.10033 0.26319,0.18462 0.4009,0.26725 0.29321,0.17595 0.66183,0.19572 0.93544,0.40093 0.578,0.57801 -0.0354,0.0209 0.53453,0.40089 0.1542,0.10279 0.24673,0.29811 0.40093,0.4009 0.0829,0.0553 0.19682,0.0632 0.26725,0.13364 0.0704,0.0704 0.0632,0.19683 0.13364,0.26726 0.0315,0.0315 0.0938,-0.0199 0.13364,0 0.0563,0.0282 0.0891,0.0891 0.13365,0.13364 0.0445,0.0445 0.0987,0.0812 0.13361,0.13364 0.0553,0.0829 0.0632,0.19685 0.13364,0.26728 0.68292,0.68292 -0.18637,-0.56033 0.53454,0.4009 0.0598,0.0797 0.0632,0.19682 0.13364,0.26725 0.0309,0.0309 0.2912,0.18849 0.4009,0.13364 0.15298,-0.0765 0.0792,-0.19632 0.26728,-0.13364 0.18899,0.063 0.35634,0.1782 0.53454,0.26729 0.17817,0.0891 0.36372,0.16478 0.53453,0.26725 0.41209,0.24728 0.7855,0.56341 1.20272,0.80182 0.25942,0.14825 0.55316,0.23516 0.80179,0.4009 0.12166,0.0811 0.28247,0.34168 0.4009,0.40092 0.18434,0.0922 0.11954,-0.16184 0.26728,0.13362 0.0198,0.0398 -0.0198,0.0938 0,0.13364 0.0564,0.11268 0.19738,0.16242 0.26728,0.26728 0.0553,0.0829 0.0891,0.17817 0.13362,0.26725 0.0446,0.0891 0.10215,0.17278 0.13364,0.26729 0.014,0.0422 0,0.0891 0,0.13361 0.0446,0.13364 0.0706,0.27493 0.13364,0.40092 0.0563,0.11269 0.22744,0.14775 0.26726,0.26726 0.0282,0.0845 -0.0217,0.18084 0,0.26728 0.0241,0.0966 0.0891,0.17817 0.13364,0.26726 0.0446,0.0891 0.0739,0.18759 0.13364,0.26728 0.0756,0.10078 0.19166,0.16648 0.26725,0.26726 0.0598,0.0797 0.0784,0.18438 0.13365,0.26728 0.0349,0.0524 0.0891,0.0891 0.13364,0.13364 0.0446,0.0445 0.0773,0.10546 0.13364,0.13361 0.0398,0.0199 0.10213,-0.0315 0.13361,0 0.52155,0.52155 -0.0309,0.0718 0.13364,0.40093 0.0802,0.16036 0.32073,0.24053 0.40093,0.40089 0.0198,0.0399 -0.014,0.0914 0,0.13364 0.063,0.189 0.20425,0.34555 0.26725,0.53454 0.014,0.0423 -0.014,0.0914 0,0.13364 0.0315,0.0945 0.0891,0.17817 0.13364,0.26726 0.0445,0.0891 0.0739,0.18759 0.13364,0.26728 0.0756,0.10078 0.19167,0.16648 0.26726,0.26726 0.11954,0.15935 0.14774,0.37517 0.26728,0.53453 0.0756,0.10081 0.17817,0.17817 0.26726,0.26729 0.0891,0.0891 0.17817,0.17817 0.26728,0.26725 0.0891,0.0891 0.17817,0.1782 0.26725,0.26728 0.0891,0.0891 0.16648,0.19167 0.26729,0.26726 0.0797,0.0598 0.18759,0.0739 0.26725,0.13364 0.20159,0.15118 0.32488,0.39476 0.53454,0.53454 0.0371,0.0246 0.0938,-0.0199 0.13364,0 0.55616,0.27807 -0.14285,-0.009 0.13364,0.26728 0.0704,0.0704 0.19683,0.0632 0.26726,0.13361 0.0704,0.0704 0.0891,0.1782 0.13364,0.26729 0.13192,0.26381 0.24921,0.54895 0.4009,0.80179 0.0827,0.13774 0.16695,0.27551 0.26728,0.40092 0.34779,0.43474 0.18674,0.0998 0.53454,0.53454 0.10033,0.12541 0.16692,0.27548 0.26725,0.4009 0.0787,0.0984 0.19169,0.16647 0.26728,0.26728 0.11954,0.15936 0.12642,0.39367 0.26729,0.53454 0.0315,0.0315 0.10212,-0.0315 0.13361,0 0.33756,0.33753 0.0514,0.15404 0.13364,0.40089 0.063,0.189 0.19328,0.34957 0.26728,0.53454 0.0348,0.087 0.1628,0.5637 0.26726,0.66818 0.0315,0.0315 0.10213,-0.0315 0.13364,0 0.008,0.008 0.25067,0.50964 0.26726,0.53454 0.0699,0.10483 0.1974,0.16243 0.26728,0.26725 0.16446,0.24673 0.23643,0.5551 0.40089,0.80182 0.10279,0.1542 0.29811,0.2467 0.40093,0.4009 0.11049,0.16576 0.14282,0.37899 0.26725,0.53454 0.11806,0.14758 0.27792,0.25741 0.4009,0.40092 0.24865,0.29006 0.45667,0.61815 0.66818,0.93543 0.0891,0.13365 0.16695,0.27549 0.26728,0.4009 0.0787,0.0984 0.18854,0.16889 0.26726,0.26728 0.22899,0.28623 0.37253,0.61143 0.53453,0.93544 0.0446,0.0891 0.0784,0.18439 0.13364,0.26728 0.035,0.0524 0.0891,0.0891 0.13365,0.13361 0.1529,0.15291 0.18637,0.1582 0.26725,0.40093 0.0262,0.0788 0,0.59348 0,0.66815 0,0.40092 0,0.80182 0,1.20272 0,0.53453 0,1.06907 0,1.60361 0,0.18518 0.0293,0.65524 0,0.80182 -0.0276,0.13814 -0.0995,0.26424 -0.13361,0.4009 -0.0217,0.0864 0.0398,0.18759 0,0.26728 -0.0282,0.0563 -0.10547,0.0773 -0.13364,0.13364 -0.0198,0.0398 0.0108,0.0904 0,0.13361 -0.0342,0.13666 -0.0813,0.27012 -0.13365,0.40093 -0.074,0.18494 -0.20428,0.34554 -0.26728,0.53453 -0.0282,0.0845 0.0399,0.18759 0,0.26726 -0.0282,0.0564 -0.0891,0.0891 -0.13361,0.13364 -0.13364,0.13364 -0.24972,0.28752 -0.40093,0.4009 -0.0356,0.0267 -0.0938,-0.0198 -0.13361,0 -0.0564,0.0282 -0.0891,0.0891 -0.13364,0.13364 -0.0891,0.0891 -0.21093,0.15457 -0.26728,0.26728 -0.1065,0.21299 -0.24043,1.21552 -0.26726,1.33633 -0.0306,0.13751 -0.0995,0.26424 -0.13364,0.40093 -0.0201,0.0806 0.0303,0.63788 0,0.66815 -0.0704,0.0704 -0.20751,0.054 -0.26726,0.13364 -0.0845,0.11268 -0.0706,0.2749 -0.13364,0.4009 -0.0718,0.14366 -0.18759,0.26146 -0.26728,0.40092 -0.57338,1.14676 0.0321,-0.009 -0.53454,0.93543 -0.1643,0.27387 -0.0957,0.33105 -0.40089,0.53454 -0.0371,0.0246 -0.0914,-0.014 -0.13364,0 -0.0945,0.0315 -0.18439,0.0784 -0.26726,0.13364 -0.0524,0.0349 -0.0773,0.10546 -0.13364,0.13364 -0.0399,0.0199 -0.0938,-0.0198 -0.13364,0 -0.0563,0.0281 -0.0773,0.10547 -0.13364,0.13362 -0.126,0.063 -0.26726,0.0891 -0.4009,0.13364 -0.13364,0.0446 -0.26196,0.11049 -0.4009,0.13364 -0.13181,0.022 -0.26831,-0.0167 -0.40092,0 -0.22537,0.0282 -0.44278,0.10546 -0.66815,0.13364 -0.17682,0.0222 -0.35637,0 -0.53454,0 -0.0445,0 -0.0914,-0.014 -0.13364,0 -0.96798,0.32266 0.21069,-0.0385 -0.4009,0.26726 -0.0398,0.0198 -0.0938,-0.0198 -0.13364,0 -0.0563,0.0282 -0.0773,0.10546 -0.13364,0.13364 -0.053,0.0265 -0.37359,-0.0273 -0.4009,0 -0.0315,0.0315 0.0199,0.0938 0,0.13364 -0.0282,0.0563 -0.0891,0.0891 -0.13364,0.13361 -0.0446,0.0446 -0.0773,0.10547 -0.13364,0.13364 -0.12599,0.063 -0.27143,0.0782 -0.40089,0.13364 -0.18312,0.0785 -0.34129,0.21895 -0.53454,0.26726 -0.34841,0.0871 -0.72067,0.0465 -1.06908,0.13364 -0.36922,0.0923 -0.69985,0.30861 -1.06907,0.40092 -0.71136,0.17783 -1.41581,0.13362 -2.13818,0.13362 -0.31181,0 -0.62362,0 -0.93543,0 -0.75727,0 -1.51453,0 -2.2718,0 -0.34882,0 -0.73099,0.0307 -1.06907,0 -0.5397,-0.049 -1.06357,-0.22225 -1.60361,-0.26726 -2.76527,-0.23045 1.84504,0.41207 -2.00454,-0.26728 -0.94509,-0.16677 -0.99954,-0.13364 -1.87087,-0.13364 -0.66818,0 -1.33636,0 -2.00454,0 -0.26725,0 -0.5352,0.019 -0.80179,0 -0.35822,-0.0257 -0.71482,-0.0746 -1.06907,-0.13361 -0.18116,-0.0302 -0.35637,-0.0891 -0.53454,-0.13365 -0.1782,-0.0445 -0.36031,-0.0756 -0.53454,-0.13364 -0.0945,-0.0315 -0.1728,-0.10213 -0.26728,-0.13364 -0.0423,-0.014 -0.0914,0.014 -0.13364,0 -0.23673,0.0666 -0.25178,-0.20762 -0.4009,-0.26725 -0.17052,-0.0682 -0.36573,-0.0613 -0.53454,-0.13364 -0.14761,-0.0633 -0.26146,-0.18759 -0.40089,-0.26726 -0.17299,-0.0988 -0.36042,-0.17052 -0.53454,-0.26728 -0.22707,-0.12613 -0.44114,-0.27477 -0.66818,-0.4009 -1.27529,-0.7085 0.28403,0.20884 -1.20272,-0.53454 -1.01372,-0.50686 -0.30183,-0.2821 -1.20271,-0.66818 -1.15594,-0.4954 0.19216,0.16291 -0.66818,-0.26728 -0.0891,-0.0445 -0.18759,-0.0739 -0.26726,-0.13361 -0.16467,-0.12351 -0.36441,-0.42114 -0.53454,-0.53454 -0.0829,-0.0553 -0.18187,-0.0824 -0.26728,-0.13364 -0.13771,-0.0826 -0.26318,-0.18465 -0.40089,-0.26728 -0.0854,-0.0512 -0.18439,-0.0784 -0.26729,-0.13362 -0.10482,-0.0699 -0.16242,-0.1974 -0.26725,-0.26728 -0.34147,-0.22765 -0.24554,-0.0156 -0.53454,-0.4009 -0.0598,-0.0797 -0.0632,-0.19685 -0.13364,-0.26728 -0.008,-0.008 -0.50964,-0.25066 -0.53454,-0.26725 -0.0524,-0.035 -0.0891,-0.0891 -0.13364,-0.13364 -0.0891,-0.0891 -0.19738,-0.16243 -0.26726,-0.26729 -0.0246,-0.037 0.0315,-0.10213 0,-0.13361 -0.0315,-0.0315 -0.0938,0.0198 -0.13364,0 -0.0564,-0.0282 -0.0891,-0.0891 -0.13364,-0.13364 -0.0891,-0.0891 -0.17817,-0.17817 -0.26725,-0.26728 -0.0891,-0.0891 -0.20246,-0.15923 -0.26728,-0.26726 -0.0725,-0.12078 -0.0707,-0.27493 -0.13365,-0.4009 -0.14364,-0.28731 -0.36925,-0.52639 -0.53453,-0.80182 -0.0512,-0.0854 -0.0739,-0.18759 -0.13362,-0.26728 -0.0756,-0.10078 -0.19169,-0.16647 -0.26728,-0.26725 -0.18516,-0.24686 -0.2128,-0.74735 -0.4009,-0.93544 -0.0704,-0.0704 -0.19685,-0.0632 -0.26728,-0.13364 -0.10906,-0.10906 -0.28543,-0.64786 -0.4009,-0.80182 -0.0756,-0.10078 -0.20245,-0.15923 -0.26728,-0.26725 -0.0725,-0.12081 -0.0813,-0.27012 -0.13361,-0.40093 -0.037,-0.0925 -0.0824,-0.18185 -0.13364,-0.26725 -0.24866,-0.41442 -0.47027,-0.60392 -0.80182,-0.93544 -0.0891,-0.0891 -0.17817,-0.17819 -0.26726,-0.26728 -0.0445,-0.0446 -0.0812,-0.0987 -0.13364,-0.13364 -0.0829,-0.0553 -0.17817,-0.0891 -0.26728,-0.13362 -0.0891,-0.0891 -0.16648,-0.19169 -0.26726,-0.26728 -0.0797,-0.0598 -0.17817,-0.0891 -0.26728,-0.13364 -0.0891,-0.0445 -0.17478,-0.0966 -0.26726,-0.13364 -0.13078,-0.0523 -0.27492,-0.0706 -0.40089,-0.13361 -0.14367,-0.0718 -0.25726,-0.19545 -0.40093,-0.26729 -0.12599,-0.063 -0.2714,-0.0781 -0.40089,-0.13364 -0.18309,-0.0785 -0.34801,-0.1973 -0.53454,-0.26725 -0.17198,-0.0645 -0.36401,-0.0654 -0.53454,-0.13364 -0.25431,-0.10174 0.003,-0.26726 -0.40089,-0.26726 -0.31182,0 -0.26729,0.22273 -0.40093,0.4009 -0.28736,0.38317 -0.31652,0.15946 -0.53453,0.66818 -0.0723,0.1688 -0.0425,0.37507 -0.13362,0.53453 -0.0938,0.16407 -0.30075,0.24064 -0.40092,0.4009 -0.26554,0.42484 -0.31634,1.03359 -0.53454,1.46997 -0.0996,0.19923 -0.32478,0.32523 -0.4009,0.53454 -0.14623,0.40217 -0.13364,0.79626 -0.13364,1.20272 0,0.53453 0,1.06907 0,1.60361 0,0.13364 -0.022,0.26911 0,0.40092 0.0927,0.55616 0.12187,0.23194 0.26728,0.66818 0.0423,0.12676 -0.0423,0.27411 0,0.4009 0.0199,0.0598 0.0987,0.0812 0.13362,0.13364 0.0553,0.0829 0.10215,0.17277 0.13364,0.26725 0.014,0.0423 0,0.0891 0,0.13365 0,0.22272 0,0.44545 0,0.66817 0,0.44546 0,0.89088 0,1.33634 0,0.077 -0.0243,0.61946 0,0.66817 0.14774,0.29549 0.0829,0.0415 0.26728,0.13364 0.11269,0.0564 0.15457,0.21093 0.26726,0.26726 0.0398,0.0198 0.0938,-0.0198 0.13364,0 0.0564,0.0282 0.0812,0.0987 0.13364,0.13364 0.0829,0.0553 0.18439,0.0784 0.26726,0.13364 0.0524,0.0349 0.0891,0.0891 0.13364,0.13364 0.0446,0.0445 0.0987,0.0812 0.13364,0.13364 0.0552,0.0829 0.0632,0.19683 0.13364,0.26726 0.0315,0.0315 0.0891,0 0.13361,0 0.0891,0.0446 0.19685,0.0632 0.26729,0.13364 0.0704,0.0704 0.0632,0.19682 0.13364,0.26726 0.32456,0.32459 0.19621,-0.0397 0.40089,0.26728 0.0553,0.0829 0.0632,0.19682 0.13364,0.26725 0.0704,0.0704 0.18439,0.0784 0.26726,0.13365 0.0524,0.035 0.0773,0.10546 0.13364,0.13364 0.0399,0.0198 0.10213,-0.0315 0.13364,0 0.0704,0.0704 0.0632,0.19682 0.13362,0.26725 0.68294,0.68294 -0.18638,-0.56031 0.53456,0.40093 0.0597,0.0797 0.0632,0.19682 0.13361,0.26725 0.0704,0.0704 0.18439,0.0784 0.26729,0.13364 0.086,0.0573 0.76065,0.74692 0.80179,0.80182 0.0598,0.0797 0.0739,0.18757 0.13364,0.26726 0.15118,0.20158 0.38336,0.33295 0.53454,0.53454 0.0598,0.0797 0.0632,0.19685 0.13364,0.26728 0.0704,0.0704 0.19685,0.0632 0.26728,0.13361 0.0315,0.0315 -0.0315,0.10216 0,0.13364 0.33753,0.33756 0.15404,0.0514 0.4009,0.13364 0.0945,0.0315 0.17277,0.10213 0.26725,0.13365 0.0423,0.014 0.0938,-0.0199 0.13365,0 0.0564,0.0282 0.0812,0.0987 0.13364,0.13364 0.0829,0.0552 0.18184,0.0824 0.26725,0.13361 0.27546,0.16529 0.52292,0.37518 0.80182,0.53454 0.17296,0.0989 0.37243,0.1515 0.53454,0.26728 0.15378,0.10986 0.23884,0.30366 0.4009,0.4009 0.0764,0.0459 0.17819,0 0.26728,0 0.0891,0.0446 0.18949,0.0714 0.26725,0.13364 0.14759,0.11806 0.23887,0.30366 0.40093,0.40089 0.0764,0.0459 0.18756,-0.0398 0.26725,0 0.0399,0.0199 -0.0315,0.10213 0,0.13365 0.0704,0.0704 0.1782,0.0891 0.26728,0.13364 0.0891,0.0445 0.17278,0.10213 0.26726,0.13361 0.17426,0.0581 0.35526,0.0938 0.53454,0.13364 0.22172,0.0493 0.46061,0.0414 0.66818,0.13364 0.20351,0.0905 0.33985,0.29274 0.53453,0.4009 0.27893,0.15497 1.20497,0.44619 1.47,0.53454 1.45339,0.48448 -0.35216,-0.0704 0.66816,0.13364 0.13813,0.0276 0.26426,0.0995 0.40092,0.13364 0.0864,0.0217 0.18756,-0.0399 0.26725,0 0.1315,0.0657 0.40304,0.46879 0.53454,0.53454 0.126,0.063 0.26728,0.0891 0.4009,0.13364 0.13364,0.0445 0.26548,0.0949 0.40092,0.13361 0.84288,0.24085 0.28625,0.0423 1.33633,0.26729 1.47188,0.31538 0.60357,0.21984 1.8709,0.40089 0.71104,0.10158 1.43219,0.13491 2.13815,0.26728 0.36105,0.0677 0.7099,0.19029 1.06907,0.26726 0.30015,0.32284 0.7247,0.0763 1.06908,0.13364 0.18119,0.0302 0.35446,0.0976 0.53456,0.13364 0.21434,0.0429 0.45236,-0.036 0.66816,0 0.39666,-0.0726 0.70675,0.20688 1.06907,0.26726 0.13182,0.022 0.26728,0 0.40092,0 0.22273,0 0.44593,-0.0148 0.66818,0 0.44667,0.0298 0.89477,0.0601 1.33633,0.13364 0.36232,0.0604 0.70806,0.19957 1.06908,0.26728 0.34158,0.064 1.62576,0.17814 2.00454,0.26726 0.4527,0.10652 0.88235,0.30001 1.33633,0.40089 0.3506,0.0779 0.71792,0.0584 1.06907,0.13364 0.27549,0.059 0.52851,0.19894 0.80182,0.26729 0.26287,0.0657 0.53732,0.0748 0.80182,0.13364 0.13751,0.0305 0.26424,0.0995 0.4009,0.13361 0.0864,0.0217 0.17817,0 0.26725,0 0.13365,0 0.26911,0.022 0.40093,0 0.13893,-0.0233 0.26424,-0.0995 0.40089,-0.13361 0.13984,-0.035 0.40598,0.0428 0.53454,0 0.96798,-0.32266 -0.21069,0.0385 0.4009,-0.26729 0.0398,-0.0198 0.0891,0 0.13364,0 0.0891,-0.0445 0.18439,-0.0784 0.26728,-0.13364 0.0524,-0.0349 0.0812,-0.0987 0.13362,-0.13364 0.20169,-0.13446 0.71395,-0.3566 0.93546,-0.40089 0.0874,-0.0175 0.17938,0.0145 0.26725,0 0.18116,-0.0302 0.35272,-0.10766 0.53454,-0.13364 0.26458,-0.0378 0.53724,0.0378 0.80182,0 0.18182,-0.0259 0.35444,-0.0976 0.53454,-0.13362 0.0874,-0.0175 0.18275,0.0281 0.26725,0 0.53846,-0.17949 0.0537,-0.22728 0.40093,-0.40092 0.32914,-0.16457 -0.12065,0.3879 0.40089,-0.13362 0.0704,-0.0704 0.0632,-0.19685 0.13364,-0.26728 0.0704,-0.0704 0.18439,-0.0784 0.26726,-0.13364 0.19664,-0.13107 0.3379,-0.40344 0.53454,-0.53454 0.0829,-0.0552 0.17277,-0.10213 0.26728,-0.13364 0.16589,-0.0553 0.1456,0.10972 0.26726,-0.13361 0.0198,-0.0399 -0.0199,-0.0938 0,-0.13364 0.0282,-0.0564 0.0987,-0.0812 0.13364,-0.13365 0.0552,-0.0829 0.0891,-0.17817 0.13364,-0.26725 0.0891,-0.0891 0.19166,-0.16648 0.26725,-0.26728 0.0598,-0.0797 0.0891,-0.17817 0.13364,-0.26726 0.0891,-0.13364 0.16696,-0.27551 0.26729,-0.40092 0.0787,-0.0984 0.20243,-0.15923 0.26725,-0.26726 0.0725,-0.12078 0.0491,-0.28821 0.13364,-0.40089 0.0598,-0.0797 0.19685,-0.0632 0.26728,-0.13365 0.0704,-0.0704 0.0632,-0.19685 0.13362,-0.26728 0.0315,-0.0315 0.10215,0.0315 0.13364,0 0.0315,-0.0315 -0.0198,-0.0938 0,-0.13364 0.0282,-0.0563 0.0987,-0.0812 0.13364,-0.13361 0.0167,-0.0249 0.25871,-0.52599 0.26726,-0.53454 0.0315,-0.0315 0.0891,0 0.13364,0 0.0445,-0.0446 0.0987,-0.0812 0.13364,-0.13364 0.22095,-0.33145 0.0579,-0.39579 0.53454,-0.66818 0.15946,-0.0911 0.36256,-0.0691 0.53453,-0.13364 0.18654,-0.0699 0.36039,-0.17053 0.53454,-0.26726 0.008,-0.005 1.33374,-0.80063 1.33636,-0.80182 0.25646,-0.11657 0.54435,-0.15285 0.80179,-0.26725 0.14677,-0.0652 0.25329,-0.20402 0.40093,-0.26728 0.1688,-0.0723 0.35443,-0.0976 0.53453,-0.13365 0.22262,-0.0445 0.3216,0.0793 0.53454,-0.13361 0.0315,-0.0315 -0.009,-0.09 0,-0.13364 0.036,-0.1801 0.0515,-0.37026 0.13362,-0.53454 0.0198,-0.0399 0.10215,0.0315 0.13364,0 0.0315,-0.0315 -0.0109,-0.0904 0,-0.13364 0.14774,-0.59095 0.0829,-0.20735 0.26728,-0.66818 0.0523,-0.13078 0.0813,-0.27011 0.13361,-0.4009 0.0446,-0.0891 0.0891,-0.17817 0.13364,-0.26728 0.0446,0 0.10216,0.0315 0.13365,0 0.0315,-0.0315 -0.0108,-0.0904 0,-0.13361 0.0342,-0.13666 0.0813,-0.27012 0.13364,-0.40093 0.074,-0.18494 0.19327,-0.34956 0.26725,-0.53453 0.15669,-0.39169 0.24424,-0.81103 0.40093,-1.20272 0.10951,-0.27376 0.30771,-0.52226 0.40089,-0.80179 0.014,-0.0423 -0.014,-0.0914 0,-0.13364 0.0315,-0.0945 0.10213,-0.17278 0.13364,-0.26726 0.0473,-0.142 -0.0473,-0.39254 0,-0.53454 0.0198,-0.0598 0.11369,-0.0739 0.13362,-0.13364 0.0246,-0.0737 0,-0.68839 0,-0.80182 0,-0.62362 0,-1.24724 0,-1.87087 0,-0.35636 0,-0.71273 0,-1.0691 0,-0.0878 -0.0251,-0.32549 0,-0.4009 0.0809,-0.2427 0.11438,-0.24799 0.26728,-0.40089 0.0445,-0.0446 0.0987,-0.0812 0.13364,-0.13364 0.0553,-0.0829 0.0891,-0.17817 0.13362,-0.26726 0.0446,-0.0891 0.10215,-0.1728 0.13364,-0.26728 0.014,-0.0422 0,-0.0891 0,-0.13364 0.0445,-0.13362 0.0813,-0.27011 0.13364,-0.4009 0.037,-0.0925 0.0967,-0.17478 0.13364,-0.26728 0.0523,-0.13078 0.0813,-0.27011 0.13361,-0.4009 0.037,-0.0925 0.0967,-0.17478 0.13364,-0.26725 0.0523,-0.13081 0.0949,-0.26549 0.13365,-0.40093 0.0505,-0.17658 0.0613,-0.3657 0.13364,-0.53453 0.0633,-0.14761 0.20399,-0.25329 0.26725,-0.4009 0.0606,-0.14137 0.25609,-1.11318 0.26728,-1.20272 0.0332,-0.26519 -0.0378,-0.53721 0,-0.80179 0.16606,-1.16247 0.0769,0.0164 0.26726,-0.93546 0.0265,-0.13261 0,-0.52777 0,-0.66818 0,-0.19325 0.0282,-0.79431 0,-0.93543 -0.0196,-0.0977 -0.0966,-0.17479 -0.13361,-0.26726 -0.0523,-0.13081 -0.0813,-0.27014 -0.13365,-0.40092 -0.037,-0.0925 -0.0967,-0.17479 -0.13364,-0.26726 -0.0523,-0.13078 -0.0813,-0.27011 -0.13364,-0.40092 -0.12218,-0.30546 -0.21264,-0.35441 -0.40089,-0.66815 -0.0512,-0.0854 -0.0824,-0.18188 -0.13365,-0.26729 -0.14345,-0.23907 -0.30564,-0.49651 -0.53453,-0.66817 -0.0797,-0.0598 -0.18759,-0.0739 -0.26726,-0.13362 -0.10081,-0.0756 -0.16647,-0.19169 -0.26728,-0.26728 -0.17907,-0.1343 -0.47567,-0.19026 -0.66818,-0.26726 -0.0925,-0.037 -0.17478,-0.0966 -0.26726,-0.13364 -0.26159,-0.10464 -0.53453,-0.17819 -0.80182,-0.26728 -0.13364,-0.0445 -0.2749,-0.0706 -0.40089,-0.13364 -0.8926,-0.4463 -0.48366,-0.25244 -1.06908,-0.93544 -0.123,-0.14348 -0.27646,-0.25868 -0.40089,-0.40089 -0.0884,-0.1011 -0.8204,-1.01862 -0.93546,-1.20272 -0.10557,-0.16893 -0.16844,-0.36158 -0.26726,-0.53454 -0.122,-0.21349 -0.31983,-0.42489 -0.40092,-0.66817 -0.014,-0.0423 0,-0.0891 0,-0.13365 0,-0.13361 0,-0.26725 0,-0.40089 0,-0.26726 0,-0.53454 0,-0.80182 0,-0.57907 0,-1.15816 0,-1.73723 0,-0.2027 0.0299,-0.88966 0,-1.0691 -0.023,-0.13893 -0.0995,-0.26424 -0.13362,-0.4009 -0.0476,-0.19037 0.0597,-0.48892 0,-0.66818 -0.063,-0.18899 -0.1888,-0.35142 -0.26728,-0.53453 -0.0555,-0.12947 -0.0781,-0.27141 -0.13364,-0.4009 -0.0785,-0.18309 -0.1973,-0.34801 -0.26726,-0.53454 -0.12845,-0.34253 -0.10572,-0.61238 -0.26728,-0.93543 -0.45053,-0.67583 -0.12425,-0.11023 -0.4009,-0.80182 -0.037,-0.0925 -0.0891,-0.17817 -0.13364,-0.26726 -0.0445,-0.0891 -0.0784,-0.18441 -0.13364,-0.26728 -0.0699,-0.10483 -0.22741,-0.14774 -0.26725,-0.26728 -0.0282,-0.0845 0,-0.17817 0,-0.26726 0,-0.15467 0.0298,-0.54888 0,-0.66818 -0.0241,-0.0966 -0.10949,-0.17063 -0.13364,-0.26725 -0.0217,-0.0864 0.0217,-0.18085 0,-0.26729 -0.0241,-0.0966 -0.0966,-0.17478 -0.13365,-0.26725 -0.0523,-0.13081 -0.0813,-0.27014 -0.13361,-0.40092 -0.14748,-0.36865 -0.38709,-0.70044 -0.53454,-1.06908 -0.0523,-0.13078 -0.0891,-0.26726 -0.13364,-0.4009 -0.13364,-0.40089 -0.26728,-0.80182 -0.4009,-1.20271 -0.0446,-0.13364 -0.0706,-0.2749 -0.13364,-0.4009 -0.27421,-0.54843 -0.20309,-0.25387 -0.53453,-0.66818 -0.10033,-0.12541 -0.16696,-0.27548 -0.26729,-0.40089 -0.1574,-0.19678 -0.39475,-0.32489 -0.53453,-0.53454 -0.59087,-0.88633 -0.033,-0.30025 -0.4009,-0.66818 -0.0891,-0.0891 -0.16243,-0.19738 -0.26728,-0.26728 -0.0829,-0.0553 -0.19683,-0.0632 -0.26726,-0.13364 -0.0315,-0.0315 0.0315,-0.10213 0,-0.13362 -0.0315,-0.0315 -0.0891,0 -0.13364,0 -0.0446,-0.0446 -0.0987,-0.0812 -0.13364,-0.13364 -0.34787,-0.52181 0.15126,-0.006 -0.4009,-0.66818 -0.12099,-0.14518 -0.27792,-0.25741 -0.40089,-0.4009 -0.14497,-0.16912 -0.24342,-0.37705 -0.40093,-0.53453 -0.16573,-0.16576 -0.70778,-0.51642 -0.93543,-0.66818 -0.13364,-0.0891 -0.26726,-0.17817 -0.4009,-0.26728 -0.13364,-0.0891 -0.25725,-0.19542 -0.40089,-0.26726 -0.21458,-0.10729 -0.45363,-0.15999 -0.66818,-0.26728 -0.14367,-0.0718 -0.25329,-0.204 -0.40093,-0.26726 -0.21,-0.09 -1.02827,-0.21971 -1.20269,-0.26728 -0.2718,-0.0741 -0.52681,-0.20614 -0.80182,-0.26725 -0.13046,-0.029 -0.26987,0.0262 -0.40089,0 -0.62484,-0.12497 -1.42582,-0.44313 -2.00454,-0.66818 -0.44714,-0.17389 -0.89792,-0.3397 -1.33633,-0.53454 -0.36409,-0.16182 -0.70501,-0.37272 -1.06908,-0.53454 -0.43841,-0.19486 -0.90725,-0.31999 -1.33635,-0.53454 -0.37587,-0.18793 -0.71118,-0.44794 -1.06908,-0.66818 -0.22122,-0.13612 -0.4554,-0.25196 -0.66818,-0.40089 -1.34075,-0.93853 -0.11864,-0.14341 -1.06907,-0.93546 -0.35068,-0.29221 -0.409,-0.18894 -0.66818,-0.53454 -0.0598,-0.0797 -0.0632,-0.19682 -0.13364,-0.26726 -0.10906,-0.10906 -0.64783,-0.28543 -0.8018,-0.40089 -0.1008,-0.0756 -0.17819,-0.1782 -0.26728,-0.26728 -0.0445,-0.0446 -0.0773,-0.10547 -0.13364,-0.13365 -0.0398,-0.0198 -0.0938,0.0199 -0.13361,0 -0.0564,-0.0282 -0.0891,-0.0891 -0.13364,-0.13364 -0.17817,-0.0445 -0.36574,-0.0613 -0.53454,-0.13361 -0.51485,-0.22066 -0.43752,-0.44614 -0.93544,-0.80182 -0.11464,-0.0819 -0.26902,-0.0842 -0.40092,-0.13364 -0.2246,-0.0842 -0.44058,-0.1914 -0.66818,-0.26726 -0.17423,-0.0581 -0.36668,-0.059 -0.53454,-0.13364 -0.23733,-0.10549 -0.43169,-0.29342 -0.66815,-0.4009 -0.25649,-0.11657 -0.55449,-0.13237 -0.80182,-0.26728 -0.2504,-0.13658 -0.43085,-0.37631 -0.66818,-0.53454 -0.33149,-0.221 -0.72316,-0.33686 -1.06907,-0.53453 -0.13944,-0.0797 -0.26318,-0.18463 -0.4009,-0.26726 -0.0854,-0.0512 -0.19685,-0.0632 -0.26728,-0.13364 -0.0315,-0.0315 0.014,-0.0914 0,-0.13364 -0.0315,-0.0945 -0.0632,-0.19682 -0.13364,-0.26726 -0.0315,-0.0315 -0.0966,0.0246 -0.13362,0 -0.10482,-0.0699 -0.17819,-0.17819 -0.26728,-0.26728 -0.0891,-0.0891 -0.15922,-0.20243 -0.26725,-0.26725 -0.98804,-0.59283 0.21198,0.41013 -0.80182,-0.40093 -0.0984,-0.0787 -0.17817,-0.17817 -0.26726,-0.26725 -0.41698,-0.41699 -0.60275,-0.65546 -1.20272,-0.93546 -0.43476,-0.20289 -0.89884,-0.33767 -1.33635,-0.53454 -2.00136,-0.90062 -0.6467,-0.46599 -2.67269,-1.20272 -0.92668,-0.33697 -1.88108,-0.59454 -2.80633,-0.93543 -0.45019,-0.16584 -0.88921,-0.36066 -1.33636,-0.53454 -1.35504,-0.52697 -0.67069,-0.31631 -1.87087,-0.53454 -0.22349,-0.0406 -0.44333,-0.10152 -0.66818,-0.13364 -0.0882,-0.0127 -0.17819,0 -0.26728,0 -0.0445,0 -0.0966,0.0246 -0.13364,0 -0.10483,-0.0699 -0.16888,-0.18854 -0.26726,-0.26725 -0.12541,-0.10033 -0.26728,-0.1782 -0.40089,-0.26729 -0.22273,-0.17817 -0.44744,-0.3539 -0.66818,-0.53453 -0.8817,-0.72136 -0.91435,-0.82871 -2.00454,-1.46998 -0.6868,-0.40401 -1.43504,-0.6941 -2.13815,-1.06907 -0.65119,-0.2376 -1.14033,-0.74348 -1.73725,-1.06908 -0.0172,-0.009 -1.00124,-0.33102 -1.06908,-0.53453 -0.0282,-0.0845 0.0399,-0.18759 0,-0.26729 -0.0198,-0.0398 -0.11372,0.0399 -0.13364,0 -0.0398,-0.0797 0,-0.17817 0,-0.26728 0,-0.0891 0,-0.17817 0,-0.26725 0,-0.53454 0,-1.06908 0,-1.60362 0,-0.31181 0,-0.62362 0,-0.93546 0,-0.13361 -0.0422,-0.27411 0,-0.4009 0.0199,-0.0598 0.10546,-0.0773 0.13364,-0.13364 0.0199,-0.0398 0,-0.0891 0,-0.13361 0,-0.19664 -0.014,-0.33758 0.13364,-0.53454 0.0598,-0.0797 0.19683,-0.0632 0.26726,-0.13364 0.30297,-0.30297 -0.0797,-0.29424 0.40092,-0.53454 0.16426,-0.0821 0.37026,-0.0515 0.53454,-0.13364 0.11269,-0.0563 0.17817,-0.17817 0.26726,-0.26725 0.0446,-0.0446 0.0751,-0.11026 0.13364,-0.13364 0.17817,-0.0446 0.35636,-0.0891 0.53453,-0.13365 0.0446,-0.0445 0.0773,-0.10546 0.13365,-0.13364 0.0398,-0.0198 0.0938,0.0199 0.13364,0 0.30496,-0.15248 0.36814,-0.30088 0.66815,-0.40089 0.17425,-0.0581 0.36671,-0.0591 0.53454,-0.13364 0.51382,-0.22837 0.68527,-0.4957 1.20271,-0.66818 0.21548,-0.0718 0.45943,-0.0442 0.66818,-0.13362 0.49721,0.23712 0.19712,-0.33075 0.26728,-0.40092 0.15354,-0.15354 0.23633,-0.13362 0.4009,-0.13362 0.0446,0 0.0966,0.0246 0.13364,0 0.0891,-0.0891 0.17817,-0.17819 0.26726,-0.26728 0,-0.0445 -0.0315,-0.10213 0,-0.13364 0.0704,-0.0704 0.18439,-0.0784 0.26728,-0.13364 0.0524,-0.0349 0.0891,-0.0891 0.13364,-0.13361 0.0445,-0.0446 0.0987,-0.0812 0.13361,-0.13365 0.0553,-0.0829 0.0891,-0.17817 0.13365,-0.26728 0.0891,-0.0891 0.19166,-0.16647 0.26728,-0.26725 0.0445,-0.0891 0.0891,-0.17817 0.13361,-0.26729 0,-0.0445 -0.0198,-0.0938 0,-0.13361 0.0282,-0.0564 0.0891,-0.0891 0.13364,-0.13364 0.0446,-0.0446 0.0773,-0.10546 0.13364,-0.13364 0.0399,-0.0198 0.0891,0 0.13365,0 0.0891,0 0.18756,0.0398 0.26725,0 0.0399,-0.0198 -0.0198,-0.0938 0,-0.13364 0.0282,-0.0563 0.0891,-0.0891 0.13364,-0.13362 0.0446,-0.0445 0.0891,-0.0891 0.13364,-0.13364 0.0445,-0.0445 0.0773,-0.10546 0.13362,-0.13364 0.0398,-0.0198 0.10215,0.0315 0.13364,0 0.0315,-0.0315 -0.014,-0.0914 0,-0.13364 0.0315,-0.0945 0.0632,-0.19682 0.13364,-0.26726 0.0704,-0.0704 0.18439,-0.0784 0.26728,-0.13364 0.0524,-0.0349 0.0773,-0.10546 0.13362,-0.13364 0.0398,-0.0198 0.0966,0.0246 0.13364,0 0.10483,-0.0699 0.17817,-0.17817 0.26728,-0.26725 0.0445,-0.0446 0.0751,-0.11026 0.13361,-0.13364 0.17053,-0.0682 0.35796,-0.0832 0.53454,-0.13365 0.27091,-0.0774 0.53094,-0.18986 0.80182,-0.26725 0.17658,-0.0505 0.35862,-0.0809 0.53454,-0.13364 0.26985,-0.081 0.5285,-0.19894 0.80182,-0.26728 0.42513,-0.10629 1.5017,-0.21453 1.87087,-0.26726 0.26823,-0.0383 0.53253,-0.10372 0.80182,-0.13364 0.13282,-0.0148 0.26725,0 0.40089,0 0.35637,0 0.71274,0 1.06908,0 0.16081,0 0.38402,0.0301 0.53454,0 0.13814,-0.0276 0.26278,-0.10602 0.40092,-0.13364 0.0873,-0.0175 0.17817,0 0.26726,0 0.17817,0 0.35636,0 0.53453,0 0.26729,0 0.53766,0.0406 0.80182,0 0.32052,-0.0493 0.61492,-0.21794 0.93544,-0.26726 0.26416,-0.0406 0.53454,0 0.80182,0 0.52916,0 1.47267,0 1.73725,0 0.26726,0 0.53721,0.0378 0.8018,0 0.93482,-0.13356 1.03319,-0.30607 1.87089,-0.53454 0.45929,-0.0919 0.76234,-0.14147 1.20272,-0.26728 0.13361,-0.0445 0.26725,-0.0891 0.40089,-0.13364 0.0891,-0.0445 0.17278,-0.10213 0.26726,-0.13361 0.0423,-0.014 0.0891,0 0.13364,0 0.0891,0 0.1782,0 0.26728,0 0.22273,0 0.44546,0 0.66818,0 0.17817,0 0.35634,0 0.53454,0 0.13361,0 0.26985,-0.0262 0.4009,0 0.318,0.0636 0.61745,0.20365 0.93543,0.26725 0.13105,0.0262 0.26728,0 0.40092,0 0.44543,0 0.89088,0 1.33633,0 0.13365,0 0.26861,-0.0188 0.4009,0 1.16247,0.16608 -0.0164,0.0769 0.93546,0.26728 0.0874,0.0175 0.17992,-0.0175 0.26726,0 0.13814,0.0276 0.26278,0.106 0.40092,0.13365 0.0873,0.0175 0.17989,-0.0175 0.26726,0 0.13813,0.0276 0.26278,0.10599 0.40089,0.13361 0.17473,0.0349 0.3588,-0.0293 0.53454,0 0.18119,0.0302 0.35446,0.0976 0.53456,0.13364 0.17817,0.0356 0.49874,-0.0424 0.66816,0 0.33028,0.0826 0.39169,0.12901 0.66818,0.26728 0.0891,0.0445 0.17277,0.10213 0.26728,0.13362 0.0422,0.014 0.0891,0 0.13361,0 0.0891,0 0.17889,-0.0111 0.26728,0 0.26887,0.0336 0.54042,0.0624 0.80182,0.13364 0.23141,0.0631 0.43673,0.20415 0.66816,0.26728 0.2614,0.0713 0.53779,0.0727 0.80182,0.13362 0.31599,0.0729 0.61745,0.20367 0.93543,0.26728 0.35216,0.0704 0.71086,0.10805 1.06908,0.13364 1.28135,0.0915 0.55864,-0.1927 2.27179,0.13361 5.35498,1.02 -2.62001,-0.1675 2.67271,0.66818 2.76371,0.43638 -0.29093,-0.25397 2.27179,0.53454 0.2171,0.0668 0.44781,0.0786 0.66816,0.13364 0.13665,0.0342 0.26426,0.0995 0.40092,0.13364 0.0432,0.0109 0.10213,-0.0315 0.13361,0 0.0315,0.0315 -0.014,0.0914 0,0.13364 0.0315,0.0945 0.0967,0.17479 0.13365,0.26726 0.0523,0.13078 0.0891,0.26728 0.13364,0.40089 0.0445,0.13365 0.0891,0.26729 0.13364,0.40093 0.0445,0.13361 0.0706,0.2749 0.13361,0.40089 0.56282,1.12559 -0.0707,-0.38039 0.66818,0.80182 0.12713,0.20342 0.15999,0.45361 0.26728,0.66816 0.0718,0.14367 0.19545,0.25725 0.26726,0.40092 0.12599,0.25196 0.16264,0.54023 0.26728,0.80179 0.037,0.0925 0.0966,0.17479 0.13364,0.26729 0.0523,0.13078 0.0813,0.27011 0.13362,0.40089 0.037,0.0925 0.0784,0.18439 0.13364,0.26728 0.0349,0.0524 0.11372,0.0739 0.13364,0.13362 0.13364,0.40092 -0.0668,0.13364 0,0.40092 0.0826,0.33025 0.12901,0.39166 0.26725,0.66815 0.0446,0.0891 0.10216,0.1728 0.13365,0.26729 0.014,0.0423 0,0.0891 0,0.13364 0,0.13361 -0.0262,0.26985 0,0.40089 0.0196,0.0977 0.0891,0.17817 0.13364,0.26729 0.0445,0.0891 0.0784,0.18438 0.13364,0.26725 0.20386,0.30581 0.10578,-0.0835 0.26725,0.4009 0.043,0.12901 -0.0371,0.51956 0,0.66818 0.0446,0.13364 0.0891,0.26728 0.13364,0.40089 0,0.0446 -0.0108,0.0904 0,0.13364 0.0342,0.13666 0.10602,0.26279 0.13364,0.4009 0.0175,0.0874 -0.0127,0.1791 0,0.26728 0.0394,0.27557 0.18389,0.91091 0.26726,1.20272 0.0774,0.27088 0.21204,0.52554 0.26728,0.80179 0.0495,0.24747 -0.0495,0.688 0,0.93546 0.0276,0.13812 0.10599,0.26279 0.13364,0.4009 0.0175,0.0874 -0.0145,0.17939 0,0.26728 0.0362,0.21723 0.17648,0.70848 0.26726,0.93544 0.037,0.0925 0.10948,0.17063 0.13364,0.26725 0.0217,0.0864 0,0.1782 0,0.26728 0.0445,0.13365 0.0995,0.26424 0.13364,0.4009 0.042,0.16809 -0.0341,0.3642 0,0.53454 0.036,0.1801 0.0976,0.35446 0.13362,0.53454 0.0262,0.13104 0,0.26728 0,0.40092 0,0.4009 0,0.80179 0,1.20272 0,0.66815 0,1.33633 0,2.00451 0,0.13364 0,0.26728 0,0.40089 0,0.13364 0.022,0.26911 0,0.40093 -0.0633,0.37988 -0.14261,0.35657 -0.26726,0.66815 -0.0523,0.13081 -0.0995,0.26426 -0.13364,0.40092 -0.0314,0.12576 0.0315,0.27511 0,0.4009 -0.16132,0.64532 -0.0635,-0.007 -0.26726,0.40089 -0.063,0.126 -0.0555,0.28372 -0.13364,0.40093 -0.0246,0.037 -0.11372,-0.0399 -0.13364,0 -0.0398,0.0797 0.0175,0.17989 0,0.26725 -0.0276,0.13814 -0.0891,0.26729 -0.13364,0.4009 -0.0445,0.13364 -0.0891,0.26728 -0.13361,0.40092 -0.0891,0.26726 -0.16264,0.54023 -0.26729,0.8018 -0.12218,0.30548 -0.21264,0.35443 -0.40089,0.66818 -0.0512,0.0854 -0.0784,0.18438 -0.13364,0.26728 -0.035,0.0524 -0.0987,0.0812 -0.13364,0.13361 -0.0553,0.0829 -0.0891,0.1782 -0.13365,0.26728 -0.0445,0.0891 -0.10213,0.17278 -0.13361,0.26726 -0.014,0.0423 0.0315,0.10216 0,0.13364 -0.0315,0.0315 -0.0938,-0.0198 -0.13364,0 -0.0564,0.0282 -0.0891,0.0891 -0.13364,0.13364 -0.0445,0.0445 -0.10547,0.0773 -0.13364,0.13364 -0.0199,0.0398 0,0.0891 0,0.13362 0,0.0446 -0.0315,0.10215 0,0.13364 0.0704,0.0704 0.18441,0.0784 0.26728,0.13364 0.0524,0.0349 0.0891,0.0891 0.13364,0.13364 0.1529,0.1529 0.15819,0.18635 0.4009,0.26726 0.0422,0.014 0.10213,0.0315 0.13364,0 0.0315,-0.0315 0.007,-0.0896 0,-0.13365 -0.0228,-0.14208 -0.059,-0.28164 -0.0886,-0.42248 z"
       id="path4937"
       inkscape:connector-curvature="0" />
    <path
       style="fill:#000000;fill-opacity:1;stroke:#000000;stroke-width:0.26458332px;stroke-linecap:butt;stroke-linejoin:miter;stroke-opacity:1"
       d="m -513.93366,610.49231 -31.80507,-46.77218 24.32152,-24.32152 63.61015,63.61014 -14.9671,14.9671 -29.93418,-29.93418 20.57976,39.28861 -14.9671,14.9671 -41.15951,-22.45064 31.80507,31.80507 -14.96708,14.96709 -63.61015,-63.61014 24.32152,-24.32153 z"
       id="path4023-7-6-6-5"
       inkscape:connector-curvature="0" />
    <circle
       style="fill:#ffffff;fill-opacity:1;stroke-width:0.36792752"
       id="path6394"
       cx="-580.36224"
       cy="654.65558"
       r="27.594566" />
    <g
       id="g6463">
      <ellipse
         ry="27.594568"
         rx="32.93996"
         cy="575.46393"
         cx="-527.55164"
         id="path6394-1"
         style="fill:#d40000;fill-opacity:1;stroke-width:0.40198699" />
    </g>
    <ellipse
       style="fill:#550000;fill-opacity:1;stroke-width:0.40198702"
       id="path6394-1-7"
       cx="-522.20624"
       cy="627.47272"
       rx="32.93996"
       ry="27.594568" />
    <ellipse
       style="fill:#ff0000;fill-opacity:1;stroke-width:0.37251502"
       id="path6394-1-7-7"
       cx="-446.08597"
       cy="690.39258"
       rx="33.474499"
       ry="23.318254"
       transform="rotate(7.5592562)" />
    <ellipse
       style="fill:#ff0000;fill-opacity:1;stroke-width:0.37251502"
       id="path6394-1-7-7-4"
       cx="-445.73792"
       cy="693.01538"
       rx="33.474499"
       ry="23.318254"
       transform="rotate(7.5592561)" />
    <ellipse
       style="fill:#ff0000;fill-opacity:1;stroke-width:0.37251502"
       id="path6394-1-7-7-3"
       cx="-440.43271"
       cy="640.98065"
       rx="33.474499"
       ry="23.318254"
       transform="rotate(7.5592561)" />
  </g>
</svg>
