<?xml version="1.0" encoding="UTF-8" standalone="no"?>
<!-- Created with Inkscape (http://www.inkscape.org/) -->

<svg
   xmlns:dc="http://purl.org/dc/elements/1.1/"
   xmlns:cc="http://creativecommons.org/ns#"
   xmlns:rdf="http://www.w3.org/1999/02/22-rdf-syntax-ns#"
   xmlns:svg="http://www.w3.org/2000/svg"
   xmlns="http://www.w3.org/2000/svg"
   xmlns:sodipodi="http://sodipodi.sourceforge.net/DTD/sodipodi-0.dtd"
   xmlns:inkscape="http://www.inkscape.org/namespaces/inkscape"
   width="100"
   height="100"
   viewBox="0 0 26.458333 26.458334"
   version="1.1"
   id="svg4916"
   inkscape:version="0.92.4 (5da689c313, 2019-01-14)"
   sodipodi:docname="Zeichnung.svg">
  <defs
     id="defs4910" />
  <sodipodi:namedview
     id="base"
     pagecolor="#ffffff"
     bordercolor="#666666"
     borderopacity="1.0"
     inkscape:pageopacity="0.0"
     inkscape:pageshadow="2"
     inkscape:zoom="3.959798"
     inkscape:cx="104.29812"
     inkscape:cy="-0.22056048"
     inkscape:document-units="mm"
     inkscape:current-layer="layer1"
     showgrid="false"
     units="px"
     inkscape:window-width="1920"
     inkscape:window-height="1102"
     inkscape:window-x="-10"
     inkscape:window-y="-10"
     inkscape:window-maximized="1" />
  <metadata
     id="metadata4913">
    <rdf:RDF>
      <cc:Work
         rdf:about="">
        <dc:format>image/svg+xml</dc:format>
        <dc:type
           rdf:resource="http://purl.org/dc/dcmitype/StillImage" />
        <dc:title></dc:title>
      </cc:Work>
    </rdf:RDF>
  </metadata>
  <g
     inkscape:label="Ebene 1"
     inkscape:groupmode="layer"
     id="layer1"
     transform="translate(0,-270.54165)">
    <ellipse
       style="opacity:1;vector-effect:none;fill:#abb0ba;fill-opacity:1;fill-rule:nonzero;stroke:none;stroke-width:2.30769277;stroke-linecap:butt;stroke-linejoin:miter;stroke-miterlimit:4;stroke-dasharray:none;stroke-dashoffset:0;stroke-opacity:1"
       id="path4538-0-6"
       cx="13.229168"
       cy="283.77081"
       rx="7.9375005"
       ry="7.9375" />
    <ellipse
       style="opacity:1;vector-effect:none;fill:#e9edf4;fill-opacity:1;fill-rule:nonzero;stroke:none;stroke-width:1.53846169;stroke-linecap:butt;stroke-linejoin:miter;stroke-miterlimit:4;stroke-dasharray:none;stroke-dashoffset:0;stroke-opacity:1"
       id="path4538-0"
       cx="13.229168"
       cy="283.77081"
       rx="5.291667"
       ry="5.2916665" />
    <path
       style="fill:#e9edf4;fill-opacity:1;stroke:none;stroke-width:0.05291666px;stroke-linecap:butt;stroke-linejoin:miter;stroke-opacity:1"
       d="m 12.170834,273.18748 v -1.5875 c 0,0 0,-1.05833 1.058334,-1.05833 1.058333,0 1.058333,1.05833 1.058333,1.05833 v 22.75417 1.5875 c 0,0 0,1.05833 -1.058333,1.05833 -1.058334,0 -1.058334,-1.05833 -1.058334,-1.05833 v -22.75417"
       id="path4880"
       inkscape:connector-curvature="0" />
    <path
       style="fill:#e9edf4;fill-opacity:1;stroke:none;stroke-width:0.05291666px;stroke-linecap:butt;stroke-linejoin:miter;stroke-opacity:1"
       d="m 23.812501,282.71248 h 1.5875 c 0,0 1.058332,0 1.058332,1.05833 0,1.05834 -1.058332,1.05834 -1.058332,1.05834 H 2.645834 1.058334 c 0,0 -1.058334,0 -1.058334,-1.05834 0,-1.05833 1.058334,-1.05833 1.058334,-1.05833 h 22.754167"
       id="path4880-8"
       inkscape:connector-curvature="0" />
    <path
       style="fill:#e9edf4;fill-opacity:1;stroke:none;stroke-width:0.05291666px;stroke-linecap:butt;stroke-linejoin:miter;stroke-opacity:1"
       d="m 20.002501,275.51581 1.122532,-1.12253 c 0,0 0.748354,-0.74835 1.49671,0 0.748354,0.74836 -2e-6,1.49671 -2e-6,1.49671 l -16.089626,16.08963 -1.122532,1.12253 c 0,0 -0.748355,0.74836 -1.496709,0 -0.748355,-0.74835 0,-1.49671 0,-1.49671 l 16.089627,-16.08963"
       id="path4880-3"
       inkscape:connector-curvature="0" />
    <path
       style="fill:#e9edf4;fill-opacity:1;stroke:none;stroke-width:0.05291666px;stroke-linecap:butt;stroke-linejoin:miter;stroke-opacity:1"
       d="m 4.974168,276.99748 -1.122532,-1.12253 c 0,0 -0.748355,-0.74836 -2e-6,-1.49671 0.748355,-0.74836 1.49671,0 1.49671,0 l 16.089631,16.08963 1.122532,1.12253 c 0,0 0.748356,0.74836 0,1.49671 -0.748354,0.74836 -1.496708,0 -1.496708,0 L 4.974168,276.99748"
       id="path4880-9"
       inkscape:connector-curvature="0" />
    <ellipse
       style="opacity:1;vector-effect:none;fill:#fefeff;fill-opacity:1;fill-rule:nonzero;stroke:none;stroke-width:0.76923072;stroke-linecap:butt;stroke-linejoin:miter;stroke-miterlimit:4;stroke-dasharray:none;stroke-dashoffset:0;stroke-opacity:1"
       id="path4538"
       cx="13.229168"
       cy="283.77081"
       rx="2.6458335"
       ry="2.6458333" />
  </g>
</svg>
