<svg version="1.1" id="Layer_1" xmlns="http://www.w3.org/2000/svg" xmlns:xlink="http://www.w3.org/1999/xlink" x="0px" y="0px"
	 width="100%" viewBox="0 0 720 1024" enable-background="new 0 0 720 1024" xml:space="preserve">
<path fill="#000000" opacity="1.000000" stroke="none" 
	d="
M1.000000,903.000000 
	C1.000000,717.312439 1.000000,531.624878 1.211312,345.665894 
	C2.798665,347.491333 4.527982,346.614594 6.294439,346.045624 
	C10.739577,344.613800 15.203234,343.300537 19.986635,343.913116 
	C24.279718,344.462830 27.926579,343.088898 30.635929,339.704468 
	C34.820095,334.477814 40.485302,332.629578 46.863472,332.139435 
	C50.845985,331.833374 54.810448,331.299072 58.789871,330.944214 
	C62.586243,330.605713 65.985565,329.290039 68.624931,326.560303 
	C77.172615,317.719940 85.713837,308.916687 93.276497,299.130219 
	C99.860115,290.610718 106.618332,282.155304 114.935234,275.048798 
	C122.394958,268.674713 131.158325,263.730957 137.327240,255.985748 
	C141.152908,251.182571 145.687454,247.151932 150.727905,244.215927 
	C159.333694,239.203064 162.040894,231.614243 162.805984,222.598801 
	C162.932678,221.105850 163.036987,219.608917 163.084167,218.111694 
	C163.214478,213.976334 164.582642,210.276840 167.042068,206.991226 
	C178.009232,192.339905 187.716705,176.823074 198.144806,161.802505 
	C209.642639,145.241119 222.939102,130.663742 241.147537,120.988678 
	C255.043732,113.604919 266.989349,103.543579 277.631256,91.859650 
	C282.685425,86.310623 288.695465,81.221489 296.452209,80.326042 
	C315.660278,78.108650 334.092224,73.490288 351.161377,64.257416 
	C361.075989,58.894508 371.592163,54.556328 379.920563,46.473015 
	C388.306824,38.333530 395.666321,29.367046 403.014008,20.331240 
	C406.423981,16.137827 407.153076,12.209891 404.479828,7.575164 
	C403.149200,5.268150 401.979004,2.861362 400.000000,1.000000 
	C412.020905,1.000000 424.041779,1.000000 436.323181,1.162905 
	C435.640533,6.703261 436.009247,12.210021 439.193909,16.500391 
	C445.649323,25.197226 454.450806,31.729887 461.982880,39.460209 
	C465.339050,42.904728 468.726501,46.288731 472.911255,48.900764 
	C494.725525,62.516777 517.312561,74.668762 536.398865,92.674950 
	C563.018066,117.787781 591.477661,140.936539 616.457764,167.832703 
	C627.757751,179.999420 642.609009,187.808640 655.145142,198.525223 
	C668.442810,209.892731 681.608093,221.316772 692.374023,235.196747 
	C697.251465,241.484940 703.156372,245.954361 711.139099,247.391769 
	C714.412842,247.981247 717.796875,246.485382 721.000000,248.000000 
	C721.000000,403.687561 721.000000,559.375122 720.713013,715.510010 
	C713.005676,719.566528 705.570312,723.145569 698.185547,726.826233 
	C697.347351,727.244019 696.799927,728.239136 696.107239,728.956482 
	C691.195496,734.043884 685.263428,737.411011 678.213806,737.852295 
	C673.221375,738.164795 668.902344,739.921570 666.995483,744.114929 
	C661.890564,755.341125 650.714539,758.989258 641.638000,764.935059 
	C631.855835,771.343018 620.402710,775.031494 611.581665,783.258240 
	C607.197876,787.346802 602.861145,791.375671 599.125977,796.097778 
	C593.979187,802.604492 589.411194,809.998657 583.017883,814.993835 
	C572.101990,823.522583 563.368286,833.252075 557.809204,845.941345 
	C556.286560,849.416931 554.405762,853.055115 551.218323,855.250183 
	C538.783997,863.813232 531.559631,876.169006 525.173401,889.353882 
	C522.282471,895.322449 518.214539,900.579773 512.877686,904.873169 
	C506.925751,909.661316 500.492523,914.297791 495.941620,920.274109 
	C489.468018,928.775635 484.269653,938.265747 478.326996,947.219116 
	C469.781830,960.093567 460.906372,972.053528 446.357422,978.446106 
	C439.359985,981.520691 435.458649,987.357727 431.510376,993.414185 
	C427.172363,1000.068481 421.416504,1005.539062 413.893127,1008.222412 
	C407.774017,1010.405029 401.790070,1012.904114 395.700531,1015.140442 
	C390.145844,1017.180237 390.003113,1017.655457 393.096558,1022.404236 
	C392.220886,1022.803650 391.344482,1023.201477 390.180573,1023.729919 
	C391.483704,1024.316895 392.241852,1024.658447 393.000000,1025.000000 
	C353.979095,1025.000000 314.958221,1025.000000 275.731812,1024.882812 
	C276.430878,1024.436401 277.335419,1024.107056 278.866638,1023.549683 
	C274.775635,1022.707031 271.026855,1023.698486 267.618103,1022.126770 
	C267.903442,1020.273499 270.034027,1018.459656 267.548309,1017.121094 
	C262.627197,1014.471130 258.922302,1010.076294 252.988342,1008.738220 
	C239.184113,1005.625366 227.537003,998.230469 217.209778,988.713684 
	C214.972397,986.651855 212.470001,985.115234 209.798462,983.701172 
	C198.521530,977.732056 186.288269,975.478577 173.794418,974.124207 
	C159.852417,972.612854 146.768372,968.163818 134.646851,961.336304 
	C118.803253,952.412231 108.077675,938.213013 98.603310,923.257202 
	C91.288956,911.711182 80.618935,906.848694 67.967209,905.159302 
	C61.552177,904.302673 55.001850,904.155762 48.516270,904.200989 
	C38.399467,904.271545 29.433937,901.893860 22.394011,894.097839 
	C20.644667,892.160583 17.603880,890.632080 15.718696,892.457031 
	C12.908248,895.177673 9.227521,895.664185 6.094488,897.159607 
	C3.103995,898.587036 1.878279,900.333130 1.000000,903.000000 
M571.775940,336.725891 
	C533.701172,299.144287 495.624481,261.564667 457.552673,223.980118 
	C442.846405,209.462067 428.156769,194.927185 413.447876,180.411774 
	C408.884949,175.908844 408.451477,175.911118 403.842255,180.458908 
	C401.826416,182.447876 399.913025,184.540207 397.924866,186.557755 
	C362.013519,222.999954 326.089508,259.429718 290.209717,295.902985 
	C288.565765,297.574158 286.190155,298.918579 286.158417,301.816010 
	C288.567139,303.277069 290.854523,302.488708 293.112823,302.225403 
	C309.213776,300.348175 325.319702,299.960175 341.434204,302.063202 
	C368.596466,305.608063 394.268738,314.020447 418.996826,325.616821 
	C430.501923,331.012146 431.965149,330.524689 438.522217,319.347076 
	C440.871338,315.342651 442.480255,310.910675 444.690216,306.815887 
	C446.542114,303.384521 449.652405,301.965363 453.540436,302.677185 
	C457.242065,303.354889 459.347931,305.694305 460.002472,309.361420 
	C460.469635,311.978607 460.965302,314.593353 461.332336,317.225372 
	C463.948792,335.988831 466.598358,354.747986 469.112579,373.525238 
	C471.295715,389.830078 473.299561,406.158844 475.417999,422.472473 
	C475.916656,426.312531 475.301117,429.650665 471.124084,430.894440 
	C466.996552,432.123505 463.015625,431.599060 460.463440,427.702332 
	C458.652313,424.937073 457.296631,421.860382 455.864166,418.862244 
	C438.421906,382.355774 413.057037,352.925415 377.311310,333.494598 
	C344.345978,315.575104 309.513580,311.885651 273.465790,323.233154 
	C266.546906,325.411133 266.060791,326.958801 269.380402,333.314850 
	C296.449615,385.144470 323.571960,436.946411 350.568604,488.813751 
	C352.415527,492.362122 354.844574,494.364624 358.659210,495.443939 
	C374.046417,499.797638 389.201447,504.880035 404.134705,510.610321 
	C425.534332,518.821838 446.408264,528.021545 463.483246,543.893250 
	C502.192261,579.874573 516.735901,622.544617 499.217529,674.000610 
	C498.725739,675.445068 497.643127,676.977478 499.313385,678.711792 
	C500.224670,677.967468 501.043304,677.414001 501.724731,676.724915 
	C511.802032,666.535095 521.721130,656.183228 532.000488,646.202087 
	C535.602478,642.704590 535.405518,639.872620 533.207886,635.770447 
	C522.115601,615.064758 511.291779,594.215271 500.373260,573.416504 
	C464.675659,505.415649 428.974731,437.416595 393.300110,369.403656 
	C392.535767,367.946503 391.049988,366.589508 391.809814,364.549316 
	C393.911316,364.872314 394.827637,366.396942 395.978760,367.527161 
	C417.382904,388.542542 438.800659,409.544342 460.137299,430.628143 
	C506.010956,475.958313 551.836975,521.336731 597.691162,566.686646 
	C603.927490,572.854370 603.993774,572.873840 610.195923,566.591187 
	C640.517822,535.875549 670.814819,505.135315 701.120178,474.403320 
	C706.150391,469.302307 706.167114,469.283173 701.134399,464.318115 
	C658.187012,421.948547 615.232666,379.586060 571.775940,336.725891 
M194.642105,578.782043 
	C201.065933,581.951355 207.488037,585.124146 213.913895,588.289368 
	C288.032379,624.798401 362.161194,661.286438 436.242004,697.871826 
	C440.056335,699.755554 442.292511,699.676331 443.739838,695.226990 
	C450.721863,673.762695 450.542450,652.601257 440.701019,632.053101 
	C430.539307,610.836304 414.049225,595.578674 393.569489,584.654114 
	C367.858704,570.939087 340.017853,562.705811 312.300842,554.269348 
	C285.206757,546.022461 258.196686,537.552368 232.674438,525.069214 
	C203.470276,510.785126 181.381241,489.543182 168.950317,459.030121 
	C165.609100,450.828674 163.498016,442.294922 161.841705,433.609863 
	C161.029861,429.352814 159.456497,428.974915 156.244125,431.834106 
	C155.250153,432.718781 154.348022,433.707367 153.412491,434.656921 
	C109.909531,478.809509 66.405327,522.960876 22.907820,567.118835 
	C16.039211,574.091797 15.997807,574.162354 23.042173,581.129700 
	C68.651207,626.240051 114.281395,671.328918 159.941650,716.387390 
	C161.132538,717.562561 162.012405,719.515076 164.483963,719.140869 
	C165.332764,711.245728 163.777618,703.504211 163.331314,695.747253 
	C161.993668,672.498230 160.214539,649.274475 158.575897,626.043091 
	C158.320267,622.419006 158.080734,619.013245 162.584320,617.537781 
	C167.072815,616.067322 170.771744,616.934937 173.833420,620.499695 
	C175.485657,622.423401 176.402237,624.752014 177.404556,627.046021 
	C185.888290,646.462646 195.426407,665.317932 207.148468,683.018982 
	C222.592529,706.340576 241.062225,726.666504 264.965454,741.631348 
	C292.631897,758.952209 323.022095,764.111816 355.046417,761.383179 
	C359.255798,761.024597 364.036133,761.420593 368.288574,757.592712 
	C306.571930,696.674988 245.099701,635.998535 183.627472,575.322021 
	C183.936127,574.967896 184.244797,574.613708 184.553452,574.259583 
	C187.964813,575.011047 190.812317,577.100342 194.642105,578.782043 
M234.036697,789.463013 
	C259.025391,814.168640 284.093628,838.794800 308.916718,863.665771 
	C312.623535,867.379639 314.599701,866.940613 318.014313,863.431152 
	C340.775085,840.039734 363.794250,816.900146 386.630554,793.581787 
	C396.883392,783.112488 396.718018,785.981384 386.555817,775.554382 
	C384.120667,773.055725 381.767639,772.340027 378.143829,773.091309 
	C347.914551,779.358154 317.694397,778.851501 287.500488,772.520508 
	C259.879211,766.728821 234.140915,756.118469 209.492279,742.611084 
	C204.059006,739.633728 202.029022,740.561462 196.973755,747.068542 
	C193.753021,751.214111 197.165695,753.094482 199.378922,755.294800 
	C210.716690,766.565918 222.140762,777.750244 234.036697,789.463013 
M352.955933,1023.925598 
	C354.197357,1023.861938 355.438782,1023.798218 356.680206,1023.734558 
	C356.665894,1023.649231 356.651611,1023.563904 356.637299,1023.478577 
	C350.818420,1023.478577 344.999512,1023.478577 339.180603,1023.478577 
	C339.182556,1023.625305 339.184509,1023.772034 339.186462,1023.918762 
	C343.492279,1023.918762 347.798126,1023.918762 352.955933,1023.925598 
z"/>
</svg>